<?xml version="1.0" encoding="UTF-8" standalone="no"?>
<!-- Created with Inkscape (http://www.inkscape.org/) -->

<svg
   version="1.1"
   id="svg2"
   width="766.66669"
   height="928"
   viewBox="0 0 766.66669 928"
   sodipodi:docname="logo-tigre.svg"
   inkscape:version="1.3 (0e150ed6c4, 2023-07-21)"
   inkscape:export-filename="logo-svg.svg"
   inkscape:export-xdpi="96"
   inkscape:export-ydpi="96"
   xmlns:inkscape="http://www.inkscape.org/namespaces/inkscape"
   xmlns:sodipodi="http://sodipodi.sourceforge.net/DTD/sodipodi-0.dtd"
   xmlns="http://www.w3.org/2000/svg"
   xmlns:svg="http://www.w3.org/2000/svg">
  <defs
     id="defs6">
    <clipPath
       clipPathUnits="userSpaceOnUse"
       id="clipPath26">
      <path
         d="m 1760.08,4014.06 c 215.51,60.51 490.23,123.52 728.4,142.42 238.16,18.91 587.22,22.7 817.85,-2.53 230.62,-25.2 433.51,-66.76 528.01,-90.71 94.53,-23.94 151.05,-43.63 160.19,-46.52 9.14,-2.89 20.94,-10.47 20.94,0 0,10.47 8.2,183.36 6.95,252.65 -1.25,69.3 -12.89,250.98 -33.32,360.04 -20.08,107.11 -61.17,242.35 -107.69,328.25 -36.21,66.87 -110.94,114.45 -167.66,121.99 -56.68,7.58 -408.67,14.41 -570,13.12 -161.29,-1.25 -722.07,-20.15 -909.84,-39.06 -187.74,-18.91 -468.75,-51.64 -531.76,-61.72 -63.01,-10.12 -100.35,-29.14 -127.31,-100.39 -27.65,-73.08 -49.21,-161.13 -59.21,-265.08 -8.95,-92.89 -17.66,-273.47 -18.91,-336.48 -1.25,-63.01 -2.5,-177.66 7.58,-248.24 10.08,-70.55 15.11,-107.11 26.44,-110.9 11.33,-3.79 31.53,11.37 85.71,32.77 54.18,21.41 71.83,31.53 143.67,50.39 z"
         id="path24" />
    </clipPath>
    <clipPath
       clipPathUnits="userSpaceOnUse"
       id="clipPath32">
      <path
         d="M 1490,3930 H 4030 V 5100 H 1490 Z"
         id="path30" />
    </clipPath>
    <clipPath
       clipPathUnits="userSpaceOnUse"
       id="clipPath44">
      <path
         d="m 1873.52,6603.75 c -267.15,-63.01 -607.43,-161.33 -867,-375.55 -259.61,-214.22 -310,-312.54 -352.848,-443.59 -42.852,-131.06 -15.121,-292.34 -20.152,-347.81 -5.04,-55.43 -5.04,-171.37 60.46,-239.42 65.551,-68.04 156.25,-103.32 236.918,-120.97 80.662,-17.66 205.272,-26.49 234.222,-26.49 28.98,0 37.89,-0.43 40.54,10.7 2.7,11.14 -10.23,14.69 -20.93,20.94 -10.71,6.25 -83.32,46.8 -112.7,73.09 -29.41,26.25 -103.401,88.2 -121.639,119.84 -18.282,31.6 -12.5,56.13 2.23,67.27 14.68,11.13 41.867,17.38 60.579,-0.43 18.71,-17.85 67.27,-74.88 93.56,-94.46 26.29,-19.6 123.87,-94.92 158.16,-108.28 34.34,-13.36 145.71,-53.9 207.62,-59.25 61.95,-5.36 123.44,-9.38 175.55,-4.46 52.14,4.89 106.48,10.24 128.32,15.59 21.83,5.35 37.89,11.6 34.76,23.63 -3.12,12.03 -16.48,22.7 -44.57,36.52 -28.05,13.79 -126.95,91.76 -169.72,134.11 -42.78,42.34 -119.42,171.09 -135.47,206.29 -16.02,35.19 -36.53,89.53 -39.18,115.39 -2.7,25.86 3.08,42.77 19.14,52.57 16.05,9.81 49.88,0.9 57.93,-15.15 8,-16.06 20.04,-71.29 28.04,-88.67 8.05,-17.39 70.39,-155.47 148.83,-226.76 78.4,-71.29 231.21,-148.36 271.76,-163.99 40.55,-15.58 57.93,-26.25 86.87,-26.25 28.99,0 89.5,2.5 137.39,7.54 47.89,5.04 212.97,25.24 312.5,32.78 99.57,7.57 425.94,22.69 517.93,25.19 91.99,2.54 173.9,0 200.39,0 26.44,0 62.69,4.42 103.01,20.82 40.31,16.37 132.61,62.35 191.25,101.45 58.59,39.06 162.53,117.18 212.3,185.86 49.81,68.67 81.29,132.93 91.99,153.75 10.74,20.78 28.99,27.69 55.47,23.32 26.45,-4.42 36.52,-32.78 29.61,-47.89 -6.91,-15.12 -47.26,-103.36 -81.91,-149.96 -34.65,-46.65 -106.49,-129.18 -166.33,-174.54 -59.88,-45.39 -109.02,-82.53 -134.22,-98.32 -25.2,-15.74 -25.2,-20.78 -20.78,-27.69 4.41,-6.95 91.99,2.5 148.67,2.5 56.72,0 253.95,-6.29 330.2,-11.95 76.21,-5.71 167.57,-14.5 195.93,-16.41 28.36,-1.88 35.94,-6.29 54.18,0 18.28,6.33 93.91,34.02 134.85,58.59 40.97,24.57 117.18,86.33 139.25,106.49 22.07,20.15 59.22,54.84 73.09,67.42 13.87,12.62 47.89,25.86 65.55,8.2 17.61,-17.65 18.24,-41.6 -3.17,-66.79 -21.4,-25.2 -68.67,-71.22 -116.56,-108.36 -47.89,-37.19 -98.28,-67.43 -114.69,-77.5 -16.36,-10.08 -13.86,-16.41 -6.91,-20.16 6.91,-3.79 47.89,-6.33 88.83,-5.7 40.97,0.66 126.01,-2.5 166.99,5.04 40.94,7.57 107.11,21.44 169.49,75.62 62.38,54.18 86.6,104.88 91.99,153.13 6.92,62.38 8.44,141.48 0.63,231.25 -8.59,98.32 -36.56,168.82 -60.51,233.12 -22.85,61.29 -83.16,176.41 -132.3,238.16 -49.14,61.76 -201.64,254.58 -375.55,336.45 -173.91,81.91 -316.29,109.65 -496.48,115.94 -180.24,6.33 -370.51,-20.16 -446.14,-50.39 -75.58,-30.24 -64.26,-36.57 -103.32,-36.57 -39.06,0 -113.4,50.43 -178.94,71.84 -65.51,21.45 -299.93,113.44 -521.72,134.84 -221.76,21.45 -541.88,6.29 -713.24,-31.48 z"
         id="path42" />
    </clipPath>
    <clipPath
       clipPathUnits="userSpaceOnUse"
       id="clipPath50">
      <path
         d="M 620,5040 H 4910 V 6650 H 620 Z"
         id="path48" />
    </clipPath>
    <clipPath
       clipPathUnits="userSpaceOnUse"
       id="clipPath62">
      <path
         d="m 788.98,1588.71 c -53.628,-21.17 -138.75,-49.88 -147.609,-68.83 -5.043,-9.45 -8.519,-16.29 4.57,-37.81 13.239,-21.72 42.379,-68.83 42.379,-68.83 0,0 212.34,-374.41 507.23,-548.318 C 1490.43,691.02 1865.94,461.641 2675,433.949 3484.02,406.211 4161.99,668.32 4456.88,877.5 c 294.88,209.18 418.35,461.25 438.51,504.06 20.2,42.85 45.39,108.4 45.39,108.4 0,0 9.34,15.78 -5.04,22.66 -15.11,7.26 -108.55,41.75 -108.55,41.75 0,0 -255.98,91.53 -445,109.18 -189.03,17.62 -268.64,13.68 -308.71,15.75 -43.05,2.22 -74.69,60.15 -12,86.01 64.93,26.72 193.75,39.69 367.66,47.23 173.91,7.58 350.35,0 451.13,-10.08 100.82,-10.08 153.75,-5.04 199.11,2.54 45.39,7.54 95.78,22.7 120.97,40.31 25.24,17.66 29.26,18.52 10.82,40.28 -20.15,23.71 -83.59,60.58 -170.51,91.68 -75.11,26.91 -292.34,63.16 -491.44,53.08 -199.1,-10.08 -364.14,-50.04 -418.95,-57.81 -49.49,-7.03 -98.24,34.57 -35.86,79.45 65.08,46.84 347.86,131.92 463.13,155.67 117.26,24.18 330.31,63.59 458.83,86.29 128.55,22.69 180.66,70.82 195.19,84.14 22.03,20.15 52.42,44.8 16.53,54.49 -46.25,12.46 -88.6,22.89 -118.32,25.39 -27.74,2.38 -80.28,3.51 -83.29,17.42 -4.45,20.31 -18.94,135.35 -30.27,201.64 -11.56,67.77 -50,230.78 -78.12,309.96 -21.92,61.84 -73.09,158.83 -80.67,181.53 -7.54,22.65 -10.08,45.35 15.16,80.62 25.19,35.31 123.47,206.68 143.63,269.69 20.16,63.01 50.43,234.41 50.43,292.34 0,57.97 -22.69,390.67 -249.53,428.48 -226.84,37.81 -433.48,-73.09 -516.68,-136.1 -83.16,-63 -181.45,-161.28 -199.1,-173.9 -17.62,-12.62 -30.24,-35.28 -65.51,-22.7 -35.31,12.62 -304.96,118.48 -574.65,146.17 -269.69,27.74 -756.09,65.55 -1119.02,2.54 -362.93,-63 -670.43,-161.29 -735.94,-189.02 -65.55,-27.73 -70.58,-32.77 -95.78,-7.58 -25.2,25.24 -204.14,211.72 -254.57,244.49 -50.39,32.78 -166.33,105.86 -206.68,120.98 -40.309,15.12 -196.559,68.05 -297.379,0 C 630.98,4156.48 562.93,4065.74 545.27,3901.91 c -17.61,-163.82 40.359,-390.62 83.21,-491.44 42.809,-100.82 88.2,-176.45 88.2,-176.45 0,0 17.621,-20.15 0,-52.93 -17.66,-32.77 -65.551,-148.67 -88.2,-226.83 -22.699,-78.13 -52.929,-284.77 -60.511,-340.24 -7.539,-55.43 10.082,-95.78 -30.239,-90.74 -40.308,5.04 -105.851,0 -105.851,0 l -90.75,-2.5 c 0,0 -40.391,0.82 5.043,-35.27 46.019,-36.56 150.547,-111.53 212.027,-140.2 61.449,-28.67 262.352,-97.19 342.461,-119.41 82.86,-23.01 390.67,-95.78 428.44,-103.36 37.81,-7.54 57.03,-18.56 57.03,-18.56 0,0 30.24,-21.13 23.64,-41.91 -7.04,-22.15 -26.45,-30.86 -56.72,-33.4 -30.24,-2.5 -144.26,9.14 -144.26,9.14 0,0 -176.25,16.33 -324.571,14.92 -114.098,-1.05 -210.199,-13.75 -308.668,-43.59 -165.821,-50.23 -241.41,-107.19 -241.41,-107.19 0,0 -29.801,-17.85 5.589,-37.73 39.059,-21.92 89.29,-47.93 156.872,-60.63 67.109,-12.61 187.308,-18.75 267.968,-16.25 80.629,2.54 272.19,27.74 337.73,30.24 65.51,2.54 274.69,25.23 315.04,22.69 40.32,-2.5 80.63,5.04 95.75,-35.27 15.15,-40.31 -32.74,-65.55 -55.43,-65.55 -22.7,0 -126.8,-9.37 -184.61,-18.08 -58.44,-8.83 -230.71,-49.38 -295.038,-69.34 -55.082,-17.07 -134.032,-43.12 -189.032,-63.32 z"
         id="path60" />
    </clipPath>
    <clipPath
       clipPathUnits="userSpaceOnUse"
       id="clipPath68">
      <path
         d="M 320,430 H 5250 V 4260 H 320 Z"
         id="path66" />
    </clipPath>
    <clipPath
       clipPathUnits="userSpaceOnUse"
       id="clipPath102">
      <path
         d="m 788.98,1588.71 c -53.628,-21.17 -138.75,-49.88 -147.609,-68.83 -5.043,-9.45 -8.519,-16.29 4.57,-37.81 13.239,-21.72 42.379,-68.83 42.379,-68.83 0,0 212.34,-374.41 507.23,-548.318 C 1490.43,691.02 1865.94,461.641 2675,433.949 3484.02,406.211 4161.99,668.32 4456.88,877.5 c 294.88,209.18 418.35,461.25 438.51,504.06 20.2,42.85 45.39,108.4 45.39,108.4 0,0 9.34,15.78 -5.04,22.66 -15.11,7.26 -108.55,41.75 -108.55,41.75 0,0 -255.98,91.53 -445,109.18 -189.03,17.62 -268.64,13.68 -308.71,15.75 -43.05,2.22 -74.69,60.15 -12,86.01 64.93,26.72 193.75,39.69 367.66,47.23 173.91,7.58 350.35,0 451.13,-10.08 100.82,-10.08 153.75,-5.04 199.11,2.54 45.39,7.54 95.78,22.7 120.97,40.31 25.24,17.66 29.26,18.52 10.82,40.28 -20.15,23.71 -83.59,60.58 -170.51,91.68 -75.11,26.91 -292.34,63.16 -491.44,53.08 -199.1,-10.08 -364.14,-50.04 -418.95,-57.81 -49.49,-7.03 -98.24,34.57 -35.86,79.45 65.08,46.84 347.86,131.92 463.13,155.67 117.26,24.18 330.31,63.59 458.83,86.29 128.55,22.69 180.66,70.82 195.19,84.14 22.03,20.15 52.42,44.8 16.53,54.49 -46.25,12.46 -88.6,22.89 -118.32,25.39 -27.74,2.38 -80.28,3.51 -83.29,17.42 -4.45,20.31 -18.94,135.35 -30.27,201.64 -11.56,67.77 -50,230.78 -78.12,309.96 -21.92,61.84 -73.09,158.83 -80.67,181.53 -7.54,22.65 -10.08,45.35 15.16,80.62 25.19,35.31 123.47,206.68 143.63,269.69 20.16,63.01 50.43,234.41 50.43,292.34 0,57.97 -22.69,390.67 -249.53,428.48 -226.84,37.81 -433.48,-73.09 -516.68,-136.1 -83.16,-63 -181.45,-161.28 -199.1,-173.9 -17.62,-12.62 -30.24,-35.28 -65.51,-22.7 -35.31,12.62 -304.96,118.48 -574.65,146.17 -269.69,27.74 -756.09,65.55 -1119.02,2.54 -362.93,-63 -670.43,-161.29 -735.94,-189.02 -65.55,-27.73 -70.58,-32.77 -95.78,-7.58 -25.2,25.24 -204.14,211.72 -254.57,244.49 -50.39,32.78 -166.33,105.86 -206.68,120.98 -40.309,15.12 -196.559,68.05 -297.379,0 C 630.98,4156.48 562.93,4065.74 545.27,3901.91 c -17.61,-163.82 40.359,-390.62 83.21,-491.44 42.809,-100.82 88.2,-176.45 88.2,-176.45 0,0 17.621,-20.15 0,-52.93 -17.66,-32.77 -65.551,-148.67 -88.2,-226.83 -22.699,-78.13 -52.929,-284.77 -60.511,-340.24 -7.539,-55.43 10.082,-95.78 -30.239,-90.74 -40.308,5.04 -105.851,0 -105.851,0 l -90.75,-2.5 c 0,0 -40.391,0.82 5.043,-35.27 46.019,-36.56 150.547,-111.53 212.027,-140.2 61.449,-28.67 262.352,-97.19 342.461,-119.41 82.86,-23.01 390.67,-95.78 428.44,-103.36 37.81,-7.54 57.03,-18.56 57.03,-18.56 0,0 30.24,-21.13 23.64,-41.91 -7.04,-22.15 -26.45,-30.86 -56.72,-33.4 -30.24,-2.5 -144.26,9.14 -144.26,9.14 0,0 -176.25,16.33 -324.571,14.92 -114.098,-1.05 -210.199,-13.75 -308.668,-43.59 -165.821,-50.23 -241.41,-107.19 -241.41,-107.19 0,0 -29.801,-17.85 5.589,-37.73 39.059,-21.92 89.29,-47.93 156.872,-60.63 67.109,-12.61 187.308,-18.75 267.968,-16.25 80.629,2.54 272.19,27.74 337.73,30.24 65.51,2.54 274.69,25.23 315.04,22.69 40.32,-2.5 80.63,5.04 95.75,-35.27 15.15,-40.31 -32.74,-65.55 -55.43,-65.55 -22.7,0 -126.8,-9.37 -184.61,-18.08 -58.44,-8.83 -230.71,-49.38 -295.038,-69.34 -55.082,-17.07 -134.032,-43.12 -189.032,-63.32 z"
         id="path100" />
    </clipPath>
    <clipPath
       clipPathUnits="userSpaceOnUse"
       id="clipPath108">
      <path
         d="M 320,430 H 5250 V 4260 H 320 Z"
         id="path106" />
    </clipPath>
    <clipPath
       clipPathUnits="userSpaceOnUse"
       id="clipPath114">
      <path
         d="m 1830,3160 h 1800 v 980 H 1830 Z"
         id="path112" />
    </clipPath>
    <clipPath
       clipPathUnits="userSpaceOnUse"
       id="clipPath120">
      <path
         d="m 1845.04,3975.27 c 0,0 -8.05,-39.18 -8.95,-109.57 -0.86,-70.43 13.4,-204.96 48.13,-298.51 34.76,-93.6 110.51,-234.38 188.91,-295.86 78.43,-61.49 126.56,-91.76 154.17,-73.95 27.62,17.82 25.83,36.53 21.37,73.05 -4.45,36.56 -23.16,187.15 -26.72,271.8 -3.55,84.64 -8.9,245.04 -5.35,302.97 3.56,57.92 15.16,168.39 19.61,194.25 4.45,25.82 -0.9,17.82 4.45,19.61 5.36,1.76 228.13,24.06 228.13,24.06 0,0 -9.81,-79.33 -8.91,-171.99 0.86,-92.65 31.17,-315.43 65.04,-411.68 33.87,-96.25 114.06,-219.22 155.94,-231.68 41.87,-12.46 66.84,-5.35 73.94,55.24 7.15,60.62 16.96,197.81 22.31,253.98 5.31,56.13 30.27,189.77 48.09,259.3 17.85,69.49 73.98,208.51 92.69,237.89 18.71,29.41 17.81,24.06 17.81,24.06 l 285.16,-9.8 c 0,0 -49.02,-48.09 -82.89,-117.62 -33.87,-69.49 -57.03,-187.11 -60.59,-253.95 -3.55,-66.83 -8,-180.89 18.71,-293.16 26.72,-112.26 66.84,-251.29 103.36,-257.54 36.53,-6.21 50.78,5.35 54.38,35.67 3.55,30.31 6.21,124.76 13.36,169.29 7.11,44.57 30.27,180.9 76.64,289.61 46.33,108.71 106.01,200.51 158.59,261.1 52.58,60.58 94.46,98.9 113.17,112.26 18.71,13.36 12.5,25.82 12.5,25.82 0,0 -237.93,52.58 -456.25,61.49 -218.32,8.94 -528.4,17.85 -714.65,-3.56 -186.21,-21.37 -524.77,-95.62 -575.63,-110.47 -30.86,-9.02 -36.52,-32.11 -36.52,-32.11 z"
         id="path118" />
    </clipPath>
    <clipPath
       clipPathUnits="userSpaceOnUse"
       id="clipPath126">
      <path
         d="m 1830,3160 h 1800 v 980 H 1830 Z"
         id="path124" />
    </clipPath>
    <clipPath
       clipPathUnits="userSpaceOnUse"
       id="clipPath136">
      <path
         d="m 788.98,1588.71 c -53.628,-21.17 -138.75,-49.88 -147.609,-68.83 -5.043,-9.45 -8.519,-16.29 4.57,-37.81 13.239,-21.72 42.379,-68.83 42.379,-68.83 0,0 212.34,-374.41 507.23,-548.318 C 1490.43,691.02 1865.94,461.641 2675,433.949 3484.02,406.211 4161.99,668.32 4456.88,877.5 c 294.88,209.18 418.35,461.25 438.51,504.06 20.2,42.85 45.39,108.4 45.39,108.4 0,0 9.34,15.78 -5.04,22.66 -15.11,7.26 -108.55,41.75 -108.55,41.75 0,0 -255.98,91.53 -445,109.18 -189.03,17.62 -268.64,13.68 -308.71,15.75 -43.05,2.22 -74.69,60.15 -12,86.01 64.93,26.72 193.75,39.69 367.66,47.23 173.91,7.58 350.35,0 451.13,-10.08 100.82,-10.08 153.75,-5.04 199.11,2.54 45.39,7.54 95.78,22.7 120.97,40.31 25.24,17.66 29.26,18.52 10.82,40.28 -20.15,23.71 -83.59,60.58 -170.51,91.68 -75.11,26.91 -292.34,63.16 -491.44,53.08 -199.1,-10.08 -364.14,-50.04 -418.95,-57.81 -49.49,-7.03 -98.24,34.57 -35.86,79.45 65.08,46.84 347.86,131.92 463.13,155.67 117.26,24.18 330.31,63.59 458.83,86.29 128.55,22.69 180.66,70.82 195.19,84.14 22.03,20.15 52.42,44.8 16.53,54.49 -46.25,12.46 -88.6,22.89 -118.32,25.39 -27.74,2.38 -80.28,3.51 -83.29,17.42 -4.45,20.31 -18.94,135.35 -30.27,201.64 -11.56,67.77 -50,230.78 -78.12,309.96 -21.92,61.84 -73.09,158.83 -80.67,181.53 -7.54,22.65 -10.08,45.35 15.16,80.62 25.19,35.31 123.47,206.68 143.63,269.69 20.16,63.01 50.43,234.41 50.43,292.34 0,57.97 -22.69,390.67 -249.53,428.48 -226.84,37.81 -433.48,-73.09 -516.68,-136.1 -83.16,-63 -181.45,-161.28 -199.1,-173.9 -17.62,-12.62 -30.24,-35.28 -65.51,-22.7 -35.31,12.62 -304.96,118.48 -574.65,146.17 -269.69,27.74 -756.09,65.55 -1119.02,2.54 -362.93,-63 -670.43,-161.29 -735.94,-189.02 -65.55,-27.73 -70.58,-32.77 -95.78,-7.58 -25.2,25.24 -204.14,211.72 -254.57,244.49 -50.39,32.78 -166.33,105.86 -206.68,120.98 -40.309,15.12 -196.559,68.05 -297.379,0 C 630.98,4156.48 562.93,4065.74 545.27,3901.91 c -17.61,-163.82 40.359,-390.62 83.21,-491.44 42.809,-100.82 88.2,-176.45 88.2,-176.45 0,0 17.621,-20.15 0,-52.93 -17.66,-32.77 -65.551,-148.67 -88.2,-226.83 -22.699,-78.13 -52.929,-284.77 -60.511,-340.24 -7.539,-55.43 10.082,-95.78 -30.239,-90.74 -40.308,5.04 -105.851,0 -105.851,0 l -90.75,-2.5 c 0,0 -40.391,0.82 5.043,-35.27 46.019,-36.56 150.547,-111.53 212.027,-140.2 61.449,-28.67 262.352,-97.19 342.461,-119.41 82.86,-23.01 390.67,-95.78 428.44,-103.36 37.81,-7.54 57.03,-18.56 57.03,-18.56 0,0 30.24,-21.13 23.64,-41.91 -7.04,-22.15 -26.45,-30.86 -56.72,-33.4 -30.24,-2.5 -144.26,9.14 -144.26,9.14 0,0 -176.25,16.33 -324.571,14.92 -114.098,-1.05 -210.199,-13.75 -308.668,-43.59 -165.821,-50.23 -241.41,-107.19 -241.41,-107.19 0,0 -29.801,-17.85 5.589,-37.73 39.059,-21.92 89.29,-47.93 156.872,-60.63 67.109,-12.61 187.308,-18.75 267.968,-16.25 80.629,2.54 272.19,27.74 337.73,30.24 65.51,2.54 274.69,25.23 315.04,22.69 40.32,-2.5 80.63,5.04 95.75,-35.27 15.15,-40.31 -32.74,-65.55 -55.43,-65.55 -22.7,0 -126.8,-9.37 -184.61,-18.08 -58.44,-8.83 -230.71,-49.38 -295.038,-69.34 -55.082,-17.07 -134.032,-43.12 -189.032,-63.32 z"
         id="path134" />
    </clipPath>
    <clipPath
       clipPathUnits="userSpaceOnUse"
       id="clipPath142">
      <path
         d="M 320,430 H 5250 V 4260 H 320 Z"
         id="path140" />
    </clipPath>
    <clipPath
       clipPathUnits="userSpaceOnUse"
       id="clipPath154">
      <path
         d="m 788.98,1588.71 c -53.628,-21.17 -138.75,-49.88 -147.609,-68.83 -5.043,-9.45 -8.519,-16.29 4.57,-37.81 13.239,-21.72 42.379,-68.83 42.379,-68.83 0,0 212.34,-374.41 507.23,-548.318 C 1490.43,691.02 1865.94,461.641 2675,433.949 3484.02,406.211 4161.99,668.32 4456.88,877.5 c 294.88,209.18 418.35,461.25 438.51,504.06 20.2,42.85 45.39,108.4 45.39,108.4 0,0 9.34,15.78 -5.04,22.66 -15.11,7.26 -108.55,41.75 -108.55,41.75 0,0 -255.98,91.53 -445,109.18 -189.03,17.62 -268.64,13.68 -308.71,15.75 -43.05,2.22 -74.69,60.15 -12,86.01 64.93,26.72 193.75,39.69 367.66,47.23 173.91,7.58 350.35,0 451.13,-10.08 100.82,-10.08 153.75,-5.04 199.11,2.54 45.39,7.54 95.78,22.7 120.97,40.31 25.24,17.66 29.26,18.52 10.82,40.28 -20.15,23.71 -83.59,60.58 -170.51,91.68 -75.11,26.91 -292.34,63.16 -491.44,53.08 -199.1,-10.08 -364.14,-50.04 -418.95,-57.81 -49.49,-7.03 -98.24,34.57 -35.86,79.45 65.08,46.84 347.86,131.92 463.13,155.67 117.26,24.18 330.31,63.59 458.83,86.29 128.55,22.69 180.66,70.82 195.19,84.14 22.03,20.15 52.42,44.8 16.53,54.49 -46.25,12.46 -88.6,22.89 -118.32,25.39 -27.74,2.38 -80.28,3.51 -83.29,17.42 -4.45,20.31 -18.94,135.35 -30.27,201.64 -11.56,67.77 -50,230.78 -78.12,309.96 -21.92,61.84 -73.09,158.83 -80.67,181.53 -7.54,22.65 -10.08,45.35 15.16,80.62 25.19,35.31 123.47,206.68 143.63,269.69 20.16,63.01 50.43,234.41 50.43,292.34 0,57.97 -22.69,390.67 -249.53,428.48 -226.84,37.81 -433.48,-73.09 -516.68,-136.1 -83.16,-63 -181.45,-161.28 -199.1,-173.9 -17.62,-12.62 -30.24,-35.28 -65.51,-22.7 -35.31,12.62 -304.96,118.48 -574.65,146.17 -269.69,27.74 -756.09,65.55 -1119.02,2.54 -362.93,-63 -670.43,-161.29 -735.94,-189.02 -65.55,-27.73 -70.58,-32.77 -95.78,-7.58 -25.2,25.24 -204.14,211.72 -254.57,244.49 -50.39,32.78 -166.33,105.86 -206.68,120.98 -40.309,15.12 -196.559,68.05 -297.379,0 C 630.98,4156.48 562.93,4065.74 545.27,3901.91 c -17.61,-163.82 40.359,-390.62 83.21,-491.44 42.809,-100.82 88.2,-176.45 88.2,-176.45 0,0 17.621,-20.15 0,-52.93 -17.66,-32.77 -65.551,-148.67 -88.2,-226.83 -22.699,-78.13 -52.929,-284.77 -60.511,-340.24 -7.539,-55.43 10.082,-95.78 -30.239,-90.74 -40.308,5.04 -105.851,0 -105.851,0 l -90.75,-2.5 c 0,0 -40.391,0.82 5.043,-35.27 46.019,-36.56 150.547,-111.53 212.027,-140.2 61.449,-28.67 262.352,-97.19 342.461,-119.41 82.86,-23.01 390.67,-95.78 428.44,-103.36 37.81,-7.54 57.03,-18.56 57.03,-18.56 0,0 30.24,-21.13 23.64,-41.91 -7.04,-22.15 -26.45,-30.86 -56.72,-33.4 -30.24,-2.5 -144.26,9.14 -144.26,9.14 0,0 -176.25,16.33 -324.571,14.92 -114.098,-1.05 -210.199,-13.75 -308.668,-43.59 -165.821,-50.23 -241.41,-107.19 -241.41,-107.19 0,0 -29.801,-17.85 5.589,-37.73 39.059,-21.92 89.29,-47.93 156.872,-60.63 67.109,-12.61 187.308,-18.75 267.968,-16.25 80.629,2.54 272.19,27.74 337.73,30.24 65.51,2.54 274.69,25.23 315.04,22.69 40.32,-2.5 80.63,5.04 95.75,-35.27 15.15,-40.31 -32.74,-65.55 -55.43,-65.55 -22.7,0 -126.8,-9.37 -184.61,-18.08 -58.44,-8.83 -230.71,-49.38 -295.038,-69.34 -55.082,-17.07 -134.032,-43.12 -189.032,-63.32 z"
         id="path152" />
    </clipPath>
    <clipPath
       clipPathUnits="userSpaceOnUse"
       id="clipPath160">
      <path
         d="M 320,430 H 5250 V 4260 H 320 Z"
         id="path158" />
    </clipPath>
    <clipPath
       clipPathUnits="userSpaceOnUse"
       id="clipPath166">
      <path
         d="m 4530,2490 h 540 v 480 h -540 z"
         id="path164" />
    </clipPath>
    <clipPath
       clipPathUnits="userSpaceOnUse"
       id="clipPath172">
      <path
         d="m 4955.9,2966.87 c 0,0 5.66,-23.94 -8.83,-42.22 -14.49,-18.24 -221.8,-213.6 -250.16,-241.33 -28.32,-27.7 -150.58,-132.3 -160.66,-150.59 -10.08,-18.24 -5.66,-36.52 12.62,-39.68 18.28,-3.17 212.97,-0.63 246.99,1.25 34.02,1.91 233.75,4.41 250.16,7.57 16.36,3.17 20.78,21.41 20.78,21.41 l -100.82,442.34 z"
         id="path170" />
    </clipPath>
    <clipPath
       clipPathUnits="userSpaceOnUse"
       id="clipPath178">
      <path
         d="m 4530,2490 h 540 v 480 h -540 z"
         id="path176" />
    </clipPath>
    <clipPath
       clipPathUnits="userSpaceOnUse"
       id="clipPath188">
      <path
         d="m 788.98,1588.71 c -53.628,-21.17 -138.75,-49.88 -147.609,-68.83 -5.043,-9.45 -8.519,-16.29 4.57,-37.81 13.239,-21.72 42.379,-68.83 42.379,-68.83 0,0 212.34,-374.41 507.23,-548.318 C 1490.43,691.02 1865.94,461.641 2675,433.949 3484.02,406.211 4161.99,668.32 4456.88,877.5 c 294.88,209.18 418.35,461.25 438.51,504.06 20.2,42.85 45.39,108.4 45.39,108.4 0,0 9.34,15.78 -5.04,22.66 -15.11,7.26 -108.55,41.75 -108.55,41.75 0,0 -255.98,91.53 -445,109.18 -189.03,17.62 -268.64,13.68 -308.71,15.75 -43.05,2.22 -74.69,60.15 -12,86.01 64.93,26.72 193.75,39.69 367.66,47.23 173.91,7.58 350.35,0 451.13,-10.08 100.82,-10.08 153.75,-5.04 199.11,2.54 45.39,7.54 95.78,22.7 120.97,40.31 25.24,17.66 29.26,18.52 10.82,40.28 -20.15,23.71 -83.59,60.58 -170.51,91.68 -75.11,26.91 -292.34,63.16 -491.44,53.08 -199.1,-10.08 -364.14,-50.04 -418.95,-57.81 -49.49,-7.03 -98.24,34.57 -35.86,79.45 65.08,46.84 347.86,131.92 463.13,155.67 117.26,24.18 330.31,63.59 458.83,86.29 128.55,22.69 180.66,70.82 195.19,84.14 22.03,20.15 52.42,44.8 16.53,54.49 -46.25,12.46 -88.6,22.89 -118.32,25.39 -27.74,2.38 -80.28,3.51 -83.29,17.42 -4.45,20.31 -18.94,135.35 -30.27,201.64 -11.56,67.77 -50,230.78 -78.12,309.96 -21.92,61.84 -73.09,158.83 -80.67,181.53 -7.54,22.65 -10.08,45.35 15.16,80.62 25.19,35.31 123.47,206.68 143.63,269.69 20.16,63.01 50.43,234.41 50.43,292.34 0,57.97 -22.69,390.67 -249.53,428.48 -226.84,37.81 -433.48,-73.09 -516.68,-136.1 -83.16,-63 -181.45,-161.28 -199.1,-173.9 -17.62,-12.62 -30.24,-35.28 -65.51,-22.7 -35.31,12.62 -304.96,118.48 -574.65,146.17 -269.69,27.74 -756.09,65.55 -1119.02,2.54 -362.93,-63 -670.43,-161.29 -735.94,-189.02 -65.55,-27.73 -70.58,-32.77 -95.78,-7.58 -25.2,25.24 -204.14,211.72 -254.57,244.49 -50.39,32.78 -166.33,105.86 -206.68,120.98 -40.309,15.12 -196.559,68.05 -297.379,0 C 630.98,4156.48 562.93,4065.74 545.27,3901.91 c -17.61,-163.82 40.359,-390.62 83.21,-491.44 42.809,-100.82 88.2,-176.45 88.2,-176.45 0,0 17.621,-20.15 0,-52.93 -17.66,-32.77 -65.551,-148.67 -88.2,-226.83 -22.699,-78.13 -52.929,-284.77 -60.511,-340.24 -7.539,-55.43 10.082,-95.78 -30.239,-90.74 -40.308,5.04 -105.851,0 -105.851,0 l -90.75,-2.5 c 0,0 -40.391,0.82 5.043,-35.27 46.019,-36.56 150.547,-111.53 212.027,-140.2 61.449,-28.67 262.352,-97.19 342.461,-119.41 82.86,-23.01 390.67,-95.78 428.44,-103.36 37.81,-7.54 57.03,-18.56 57.03,-18.56 0,0 30.24,-21.13 23.64,-41.91 -7.04,-22.15 -26.45,-30.86 -56.72,-33.4 -30.24,-2.5 -144.26,9.14 -144.26,9.14 0,0 -176.25,16.33 -324.571,14.92 -114.098,-1.05 -210.199,-13.75 -308.668,-43.59 -165.821,-50.23 -241.41,-107.19 -241.41,-107.19 0,0 -29.801,-17.85 5.589,-37.73 39.059,-21.92 89.29,-47.93 156.872,-60.63 67.109,-12.61 187.308,-18.75 267.968,-16.25 80.629,2.54 272.19,27.74 337.73,30.24 65.51,2.54 274.69,25.23 315.04,22.69 40.32,-2.5 80.63,5.04 95.75,-35.27 15.15,-40.31 -32.74,-65.55 -55.43,-65.55 -22.7,0 -126.8,-9.37 -184.61,-18.08 -58.44,-8.83 -230.71,-49.38 -295.038,-69.34 -55.082,-17.07 -134.032,-43.12 -189.032,-63.32 z"
         id="path186" />
    </clipPath>
    <clipPath
       clipPathUnits="userSpaceOnUse"
       id="clipPath194">
      <path
         d="M 320,430 H 5250 V 4260 H 320 Z"
         id="path192" />
    </clipPath>
    <clipPath
       clipPathUnits="userSpaceOnUse"
       id="clipPath206">
      <path
         d="m 788.98,1588.71 c -53.628,-21.17 -138.75,-49.88 -147.609,-68.83 -5.043,-9.45 -8.519,-16.29 4.57,-37.81 13.239,-21.72 42.379,-68.83 42.379,-68.83 0,0 212.34,-374.41 507.23,-548.318 C 1490.43,691.02 1865.94,461.641 2675,433.949 3484.02,406.211 4161.99,668.32 4456.88,877.5 c 294.88,209.18 418.35,461.25 438.51,504.06 20.2,42.85 45.39,108.4 45.39,108.4 0,0 9.34,15.78 -5.04,22.66 -15.11,7.26 -108.55,41.75 -108.55,41.75 0,0 -255.98,91.53 -445,109.18 -189.03,17.62 -268.64,13.68 -308.71,15.75 -43.05,2.22 -74.69,60.15 -12,86.01 64.93,26.72 193.75,39.69 367.66,47.23 173.91,7.58 350.35,0 451.13,-10.08 100.82,-10.08 153.75,-5.04 199.11,2.54 45.39,7.54 95.78,22.7 120.97,40.31 25.24,17.66 29.26,18.52 10.82,40.28 -20.15,23.71 -83.59,60.58 -170.51,91.68 -75.11,26.91 -292.34,63.16 -491.44,53.08 -199.1,-10.08 -364.14,-50.04 -418.95,-57.81 -49.49,-7.03 -98.24,34.57 -35.86,79.45 65.08,46.84 347.86,131.92 463.13,155.67 117.26,24.18 330.31,63.59 458.83,86.29 128.55,22.69 180.66,70.82 195.19,84.14 22.03,20.15 52.42,44.8 16.53,54.49 -46.25,12.46 -88.6,22.89 -118.32,25.39 -27.74,2.38 -80.28,3.51 -83.29,17.42 -4.45,20.31 -18.94,135.35 -30.27,201.64 -11.56,67.77 -50,230.78 -78.12,309.96 -21.92,61.84 -73.09,158.83 -80.67,181.53 -7.54,22.65 -10.08,45.35 15.16,80.62 25.19,35.31 123.47,206.68 143.63,269.69 20.16,63.01 50.43,234.41 50.43,292.34 0,57.97 -22.69,390.67 -249.53,428.48 -226.84,37.81 -433.48,-73.09 -516.68,-136.1 -83.16,-63 -181.45,-161.28 -199.1,-173.9 -17.62,-12.62 -30.24,-35.28 -65.51,-22.7 -35.31,12.62 -304.96,118.48 -574.65,146.17 -269.69,27.74 -756.09,65.55 -1119.02,2.54 -362.93,-63 -670.43,-161.29 -735.94,-189.02 -65.55,-27.73 -70.58,-32.77 -95.78,-7.58 -25.2,25.24 -204.14,211.72 -254.57,244.49 -50.39,32.78 -166.33,105.86 -206.68,120.98 -40.309,15.12 -196.559,68.05 -297.379,0 C 630.98,4156.48 562.93,4065.74 545.27,3901.91 c -17.61,-163.82 40.359,-390.62 83.21,-491.44 42.809,-100.82 88.2,-176.45 88.2,-176.45 0,0 17.621,-20.15 0,-52.93 -17.66,-32.77 -65.551,-148.67 -88.2,-226.83 -22.699,-78.13 -52.929,-284.77 -60.511,-340.24 -7.539,-55.43 10.082,-95.78 -30.239,-90.74 -40.308,5.04 -105.851,0 -105.851,0 l -90.75,-2.5 c 0,0 -40.391,0.82 5.043,-35.27 46.019,-36.56 150.547,-111.53 212.027,-140.2 61.449,-28.67 262.352,-97.19 342.461,-119.41 82.86,-23.01 390.67,-95.78 428.44,-103.36 37.81,-7.54 57.03,-18.56 57.03,-18.56 0,0 30.24,-21.13 23.64,-41.91 -7.04,-22.15 -26.45,-30.86 -56.72,-33.4 -30.24,-2.5 -144.26,9.14 -144.26,9.14 0,0 -176.25,16.33 -324.571,14.92 -114.098,-1.05 -210.199,-13.75 -308.668,-43.59 -165.821,-50.23 -241.41,-107.19 -241.41,-107.19 0,0 -29.801,-17.85 5.589,-37.73 39.059,-21.92 89.29,-47.93 156.872,-60.63 67.109,-12.61 187.308,-18.75 267.968,-16.25 80.629,2.54 272.19,27.74 337.73,30.24 65.51,2.54 274.69,25.23 315.04,22.69 40.32,-2.5 80.63,5.04 95.75,-35.27 15.15,-40.31 -32.74,-65.55 -55.43,-65.55 -22.7,0 -126.8,-9.37 -184.61,-18.08 -58.44,-8.83 -230.71,-49.38 -295.038,-69.34 -55.082,-17.07 -134.032,-43.12 -189.032,-63.32 z"
         id="path204" />
    </clipPath>
    <clipPath
       clipPathUnits="userSpaceOnUse"
       id="clipPath212">
      <path
         d="M 320,430 H 5250 V 4260 H 320 Z"
         id="path210" />
    </clipPath>
    <clipPath
       clipPathUnits="userSpaceOnUse"
       id="clipPath218">
      <path
         d="m 510,2520 h 450 v 450 H 510 Z"
         id="path216" />
    </clipPath>
    <clipPath
       clipPathUnits="userSpaceOnUse"
       id="clipPath224">
      <path
         d="m 608.199,2955 c 0,0 2.699,-23.16 10.711,-38.32 8,-15.16 63.238,-97.11 110.5,-145.23 47.231,-48.13 126.531,-126.53 170.199,-159.5 43.629,-32.97 69.493,-56.13 56.993,-67.73 -12.461,-11.6 -26.723,-19.61 -67.692,-20.51 -41.019,-0.86 -128.32,0 -192.5,6.25 -64.14,6.25 -90.859,8.91 -137.23,17.81 -46.328,8.91 -45.43,10.71 -45.43,10.71 l 24.961,234.33 45.43,170.2 z"
         id="path222" />
    </clipPath>
    <clipPath
       clipPathUnits="userSpaceOnUse"
       id="clipPath230">
      <path
         d="m 510,2520 h 450 v 450 H 510 Z"
         id="path228" />
    </clipPath>
    <clipPath
       clipPathUnits="userSpaceOnUse"
       id="clipPath240">
      <path
         d="m 788.98,1588.71 c -53.628,-21.17 -138.75,-49.88 -147.609,-68.83 -5.043,-9.45 -8.519,-16.29 4.57,-37.81 13.239,-21.72 42.379,-68.83 42.379,-68.83 0,0 212.34,-374.41 507.23,-548.318 C 1490.43,691.02 1865.94,461.641 2675,433.949 3484.02,406.211 4161.99,668.32 4456.88,877.5 c 294.88,209.18 418.35,461.25 438.51,504.06 20.2,42.85 45.39,108.4 45.39,108.4 0,0 9.34,15.78 -5.04,22.66 -15.11,7.26 -108.55,41.75 -108.55,41.75 0,0 -255.98,91.53 -445,109.18 -189.03,17.62 -268.64,13.68 -308.71,15.75 -43.05,2.22 -74.69,60.15 -12,86.01 64.93,26.72 193.75,39.69 367.66,47.23 173.91,7.58 350.35,0 451.13,-10.08 100.82,-10.08 153.75,-5.04 199.11,2.54 45.39,7.54 95.78,22.7 120.97,40.31 25.24,17.66 29.26,18.52 10.82,40.28 -20.15,23.71 -83.59,60.58 -170.51,91.68 -75.11,26.91 -292.34,63.16 -491.44,53.08 -199.1,-10.08 -364.14,-50.04 -418.95,-57.81 -49.49,-7.03 -98.24,34.57 -35.86,79.45 65.08,46.84 347.86,131.92 463.13,155.67 117.26,24.18 330.31,63.59 458.83,86.29 128.55,22.69 180.66,70.82 195.19,84.14 22.03,20.15 52.42,44.8 16.53,54.49 -46.25,12.46 -88.6,22.89 -118.32,25.39 -27.74,2.38 -80.28,3.51 -83.29,17.42 -4.45,20.31 -18.94,135.35 -30.27,201.64 -11.56,67.77 -50,230.78 -78.12,309.96 -21.92,61.84 -73.09,158.83 -80.67,181.53 -7.54,22.65 -10.08,45.35 15.16,80.62 25.19,35.31 123.47,206.68 143.63,269.69 20.16,63.01 50.43,234.41 50.43,292.34 0,57.97 -22.69,390.67 -249.53,428.48 -226.84,37.81 -433.48,-73.09 -516.68,-136.1 -83.16,-63 -181.45,-161.28 -199.1,-173.9 -17.62,-12.62 -30.24,-35.28 -65.51,-22.7 -35.31,12.62 -304.96,118.48 -574.65,146.17 -269.69,27.74 -756.09,65.55 -1119.02,2.54 -362.93,-63 -670.43,-161.29 -735.94,-189.02 -65.55,-27.73 -70.58,-32.77 -95.78,-7.58 -25.2,25.24 -204.14,211.72 -254.57,244.49 -50.39,32.78 -166.33,105.86 -206.68,120.98 -40.309,15.12 -196.559,68.05 -297.379,0 C 630.98,4156.48 562.93,4065.74 545.27,3901.91 c -17.61,-163.82 40.359,-390.62 83.21,-491.44 42.809,-100.82 88.2,-176.45 88.2,-176.45 0,0 17.621,-20.15 0,-52.93 -17.66,-32.77 -65.551,-148.67 -88.2,-226.83 -22.699,-78.13 -52.929,-284.77 -60.511,-340.24 -7.539,-55.43 10.082,-95.78 -30.239,-90.74 -40.308,5.04 -105.851,0 -105.851,0 l -90.75,-2.5 c 0,0 -40.391,0.82 5.043,-35.27 46.019,-36.56 150.547,-111.53 212.027,-140.2 61.449,-28.67 262.352,-97.19 342.461,-119.41 82.86,-23.01 390.67,-95.78 428.44,-103.36 37.81,-7.54 57.03,-18.56 57.03,-18.56 0,0 30.24,-21.13 23.64,-41.91 -7.04,-22.15 -26.45,-30.86 -56.72,-33.4 -30.24,-2.5 -144.26,9.14 -144.26,9.14 0,0 -176.25,16.33 -324.571,14.92 -114.098,-1.05 -210.199,-13.75 -308.668,-43.59 -165.821,-50.23 -241.41,-107.19 -241.41,-107.19 0,0 -29.801,-17.85 5.589,-37.73 39.059,-21.92 89.29,-47.93 156.872,-60.63 67.109,-12.61 187.308,-18.75 267.968,-16.25 80.629,2.54 272.19,27.74 337.73,30.24 65.51,2.54 274.69,25.23 315.04,22.69 40.32,-2.5 80.63,5.04 95.75,-35.27 15.15,-40.31 -32.74,-65.55 -55.43,-65.55 -22.7,0 -126.8,-9.37 -184.61,-18.08 -58.44,-8.83 -230.71,-49.38 -295.038,-69.34 -55.082,-17.07 -134.032,-43.12 -189.032,-63.32 z"
         id="path238" />
    </clipPath>
    <clipPath
       clipPathUnits="userSpaceOnUse"
       id="clipPath246">
      <path
         d="M 320,430 H 5250 V 4260 H 320 Z"
         id="path244" />
    </clipPath>
  </defs>
  <sodipodi:namedview
     id="namedview4"
     pagecolor="#ffffff"
     bordercolor="#000000"
     borderopacity="0.25"
     inkscape:showpageshadow="2"
     inkscape:pageopacity="0.0"
     inkscape:pagecheckerboard="0"
     inkscape:deskcolor="#d1d1d1"
     inkscape:zoom="0.6194804"
     inkscape:cx="-231.64575"
     inkscape:cy="349.48644"
     inkscape:window-width="2560"
     inkscape:window-height="1009"
     inkscape:window-x="-8"
     inkscape:window-y="-8"
     inkscape:window-maximized="1"
     inkscape:current-layer="g10" />
  <g
     id="g8"
     inkscape:groupmode="layer"
     inkscape:label="ink_ext_XXXXXX"
     transform="matrix(1.3333333,0,0,-1.3333333,0,928)">
    <g
       id="g10"
       transform="scale(0.1)">
      <path
         d="m 419.301,3174.22 c -30.321,-83.79 -49.18,-142.46 -60.512,-206.1 -11.328,-63.63 -18.91,-146.79 -21.449,-160.03 -2.5,-13.25 -3.121,-31.49 -28.32,-31.49 -25.231,0 -101.442,6.92 -132.969,0 -31.481,-6.95 -90.7424,-16.4 -124.1408,-78.12 -33.3594,-61.76 -27.6914,-103.36 -24.5704,-147.46 3.1719,-44.11 51.0586,-157.5 122.8902,-222.43 71.84,-64.88 88.211,-68.67 103.321,-77.5 15.121,-8.82 30.238,-26.44 27.738,-42.85 -2.539,-16.37 -15.117,-29.61 -40.98,-33.4 -25.821,-3.75 -57.969,5.04 -88.2,-10.07 -30.23,-15.12 -66.8004,-38.44 -95.7809,-76.88 C 27.3398,2049.45 11.6016,2003.48 9.73047,1964.41 7.80859,1925.35 22.9297,1835.23 81.5586,1770.35 140.16,1705.43 246.641,1619.77 284.449,1599.57 c 37.781,-20.16 61.102,-27.7 74.34,-40.94 13.242,-13.24 21.41,-32.15 26.441,-52.93 5.04,-20.78 32.782,-111.52 59.258,-157.54 26.453,-45.97 158.75,-248.86 244.461,-337.69 85.699,-88.868 546.911,-591.681 1295.461,-731.56 748.56,-139.851 1662.15,-50.39 2120.86,139.879 458.71,190.313 613.71,327.66 777.54,511.641 163.83,183.98 246.99,342.77 282.27,430.98 35.27,88.2 38.4,122.42 42.85,144.72 4.49,22.27 -7.11,50.78 42.34,69.92 49.46,19.18 117.19,51.25 152.82,78.87 35.66,27.62 143.47,107.81 145.27,204.06 1.76,96.25 -25.86,146.14 -53.48,180.9 -27.61,34.73 -65.04,68.6 -87.34,85.55 -22.27,16.91 -40.08,38.28 -24.92,51.68 15.11,13.36 61.48,61.48 87.3,99.8 25.86,38.29 74.85,134.54 65.94,194.22 -8.91,59.73 -21.37,117.66 -80.2,165.74 -58.78,48.13 -124.76,63.29 -160.39,69.54 -35.62,6.21 -51.68,2.65 -58.82,21.36 -7.11,18.71 -8.91,59.73 -10.67,89.1 -1.8,29.42 -13.36,95.36 -24.06,129.22 -10.7,33.87 -33.87,114.07 -57.03,154.14 -23.17,40.12 -42.78,58.83 -38.32,82 4.45,23.16 16.05,40.11 35.62,73.94 19.61,33.87 94.46,208.52 110.51,265.55 16.05,57.03 48.13,256.64 23.16,406.33 -24.96,149.72 -98.9,314.57 -204.06,403.67 -105.12,89.1 -262.85,165.74 -444.65,154.14 -181.75,-11.56 -243.24,-46.33 -293.16,-70.39 -49.88,-24.06 -73.2,-43.52 -90.51,-37.19 -17.34,6.29 -27.42,15.74 -29.92,38.75 -2.54,22.97 -22.38,188.09 -35,253.59 -12.58,65.55 -38.83,152.54 -46.37,173.91 -7.58,21.41 -16.95,35.2 5.31,35.2 22.31,0 158.64,-1.33 236.61,-14.26 77.97,-12.93 156.83,-42.77 270.89,-28.52 114.03,14.26 244.15,67.74 308.29,117.62 64.18,49.92 183.59,128.32 221.01,269.1 37.42,140.82 64.14,322.58 8.91,506.13 -55.28,183.6 -181.8,486.57 -297.62,598.83 -115.86,112.27 -311.87,290.47 -516.84,386.72 -204.96,96.25 -424.14,124.77 -639.8,119.42 -215.62,-5.36 -345.74,-58.83 -397.42,-73.09 -51.68,-14.26 -58.79,-24.96 -110.47,0 -51.68,24.96 -219.22,110.51 -360,142.58 -140.78,32.07 -418.83,60.58 -636.25,40.97 -217.42,-19.57 -598.79,-40.97 -930.27,-192.46 C 962.852,6601.29 756.129,6464.06 593.949,6264.45 431.762,6064.88 356.91,5915.16 342.66,5745.86 328.398,5576.56 327.58157,5539.3207 335.36881,5435.204 348.46483,5331.844 369.41,5132.81 430,5050.82 c 60.59,-81.99 117.621,-147.93 261.949,-190.7 144.379,-42.78 360.001,-57.03 470.511,-57.03 110.51,0 122.97,3.59 167.54,-1.76 44.53,-5.35 65.04,-6.25 63.24,-24.06 -1.76,-17.82 -11.56,-111.41 -17.81,-145.24 -6.25,-33.87 -17.81,-132.77 -34.77,-173.79 -16.91,-40.97 -17.81,-70.39 -44.53,-80.19 -26.75,-9.81 -68.63,14.25 -104.25,27.61 -35.67,13.4 -150.59,49.93 -184.46,55.28 -33.869,5.35 -167.541,25.82 -265.541,-1.8 -98.008,-27.62 -240.59,-124.77 -289.609,-198.71 -49.032,-73.95 -145.239,-252.19 -148.79,-426.84 -3.601,-174.64 16.008,-318.98 56.129,-412.54 40.082,-93.59 49.879,-113.16 63.243,-136.36 13.359,-23.17 24.058,-32.97 17.847,-57.03 -6.25,-24.03 -13.398,-37.43 -21.398,-53.44 z"
         style="fill:#000000;fill-opacity:1;fill-rule:nonzero;stroke:none"
         id="path16"
         sodipodi:nodetypes="cccsccccccccccccccccccsccccccccccccccccccsccccccccsscccccccssscccccscsccccccsccccccc" />
      <path
         d="m 1760.08,4014.06 c 215.51,60.51 490.23,123.52 728.4,142.42 238.16,18.91 587.22,22.7 817.85,-2.53 230.62,-25.2 433.51,-66.76 528.01,-90.71 94.53,-23.94 151.05,-43.63 160.19,-46.52 9.14,-2.89 20.94,-10.47 20.94,0 0,10.47 8.2,183.36 6.95,252.65 -1.25,69.3 -12.89,250.98 -33.32,360.04 -20.08,107.11 -61.17,242.35 -107.69,328.25 -36.21,66.87 -110.94,114.45 -167.66,121.99 -56.68,7.58 -408.67,14.41 -570,13.12 -161.29,-1.25 -722.07,-20.15 -909.84,-39.06 -187.74,-18.91 -468.75,-51.64 -531.76,-61.72 -63.01,-10.12 -100.35,-29.14 -127.31,-100.39 -27.65,-73.08 -49.21,-161.13 -59.21,-265.08 -8.95,-92.89 -17.66,-273.47 -18.91,-336.48 -1.25,-63.01 -2.5,-177.66 7.58,-248.24 10.08,-70.55 15.11,-107.11 26.44,-110.9 11.33,-3.79 31.53,11.37 85.71,32.77 54.18,21.41 71.83,31.53 143.67,50.39 z"
         style="fill:#ffffff;fill-opacity:1;fill-rule:nonzero;stroke:none"
         id="path18" />
      <g
         id="g20">
        <g
           id="g22"
           clip-path="url(#clipPath26)">
          <g
             id="g28"
             clip-path="url(#clipPath32)">
            <path
               d="m 3549.53,4989.45 c 40.35,-86.95 94.53,-244.49 114.69,-370.5 20.16,-126.02 21.41,-313.75 23.94,-396.96 2.5,-83.16 1.25,-151.21 1.25,-151.21 l 337.74,-99.53 27.73,28.98 c 0,0 11.33,238.17 1.25,362.93 -10.08,124.73 -57.97,430.98 -86.95,501.53 -28.98,70.58 -89.45,191.56 -120.98,220.54 -31.48,28.99 -187.77,54.18 -230.62,54.18 -42.81,0 -149.96,-5.04 -149.96,-5.04 0,0 40.35,-57.96 81.91,-144.92 z"
               style="fill:#e3e1e7;fill-opacity:1;fill-rule:nonzero;stroke:none"
               id="path34" />
          </g>
        </g>
      </g>
      <path
         d="m 1873.52,6603.75 c -267.15,-63.01 -607.43,-161.33 -867,-375.55 C 746.91,6013.98 696.52,5915.66 653.672,5784.61 610.82,5653.55 608.5879,5492.27 615.32811,5433.5897 617.77889,5377.0896 628.48,5265.43 693.98,5197.38 c 65.551,-68.04 156.25,-103.32 236.918,-120.97 80.662,-17.66 205.272,-26.49 234.222,-26.49 28.98,0 37.89,-0.43 40.54,10.7 2.7,11.14 -10.23,14.69 -20.93,20.94 -10.71,6.25 -83.32,46.8 -112.7,73.09 -29.41,26.25 -103.401,88.2 -121.639,119.84 -18.282,31.6 -12.5,56.13 2.23,67.27 14.68,11.13 41.867,17.38 60.579,-0.43 18.71,-17.85 67.27,-74.88 93.56,-94.46 26.29,-19.6 123.87,-94.92 158.16,-108.28 34.34,-13.36 145.71,-53.9 207.62,-59.25 61.95,-5.36 123.44,-9.38 175.55,-4.46 52.14,4.89 106.48,10.24 128.32,15.59 21.83,5.35 37.89,11.6 34.76,23.63 -3.12,12.03 -16.48,22.7 -44.57,36.52 -28.05,13.79 -126.95,91.76 -169.72,134.11 -42.78,42.34 -119.42,171.09 -135.47,206.29 -16.02,35.19 -36.53,89.53 -39.18,115.39 -2.7,25.86 3.08,42.77 19.14,52.57 16.05,9.81 49.88,0.9 57.93,-15.15 8,-16.06 20.04,-71.29 28.04,-88.67 8.05,-17.39 70.39,-155.47 148.83,-226.76 78.4,-71.29 231.21,-148.36 271.76,-163.99 40.55,-15.58 57.93,-26.25 86.87,-26.25 28.99,0 89.5,2.5 137.39,7.54 47.89,5.04 212.97,25.24 312.5,32.78 99.57,7.57 425.94,22.69 517.93,25.19 91.99,2.54 173.9,0 200.39,0 26.44,0 62.69,4.42 103.01,20.82 40.31,16.37 132.61,62.35 191.25,101.45 58.59,39.06 162.53,117.18 212.3,185.86 49.81,68.67 81.29,132.93 91.99,153.75 10.74,20.78 28.99,27.69 55.47,23.32 26.45,-4.42 36.52,-32.78 29.61,-47.89 -6.91,-15.12 -47.26,-103.36 -81.91,-149.96 -34.65,-46.65 -106.49,-129.18 -166.33,-174.54 -59.88,-45.39 -109.02,-82.53 -134.22,-98.32 -25.2,-15.74 -25.2,-20.78 -20.78,-27.69 4.41,-6.95 91.99,2.5 148.67,2.5 56.72,0 253.95,-6.29 330.2,-11.95 76.21,-5.71 167.57,-14.5 195.93,-16.41 28.36,-1.88 35.94,-6.29 54.18,0 18.28,6.33 93.91,34.02 134.85,58.59 40.97,24.57 117.18,86.33 139.25,106.49 22.07,20.15 59.22,54.84 73.09,67.42 13.87,12.62 47.89,25.86 65.55,8.2 17.61,-17.65 18.24,-41.6 -3.17,-66.79 -21.4,-25.2 -68.67,-71.22 -116.56,-108.36 -47.89,-37.19 -98.28,-67.43 -114.69,-77.5 -16.36,-10.08 -13.86,-16.41 -6.91,-20.16 6.91,-3.79 47.89,-6.33 88.83,-5.7 40.97,0.66 126.01,-2.5 166.99,5.04 40.94,7.57 107.11,21.44 169.49,75.62 62.38,54.18 86.6,104.88 91.99,153.13 6.92,62.38 8.44,141.48 0.63,231.25 -8.59,98.32 -36.56,168.82 -60.51,233.12 -22.85,61.29 -83.16,176.41 -132.3,238.16 -49.14,61.76 -201.64,254.58 -375.55,336.45 -173.91,81.91 -316.29,109.65 -496.48,115.94 -180.24,6.33 -370.51,-20.16 -446.14,-50.39 -75.58,-30.24 -64.26,-36.57 -103.32,-36.57 -39.06,0 -113.4,50.43 -178.94,71.84 -65.51,21.45 -299.93,113.44 -521.72,134.84 -221.76,21.45 -541.88,6.29 -713.24,-31.48 z"
         style="fill:#ffffff;fill-opacity:1;fill-rule:nonzero;stroke:none"
         id="path36"
         sodipodi:nodetypes="ccccccscccccccccccccccccccccssccscccccccsccscccccccccccccscccccccsccc" />
      <g
         id="g38">
        <g
           id="g40"
           clip-path="url(#clipPath44)">
          <g
             id="g46"
             clip-path="url(#clipPath50)">
            <path
               d="m 3242.07,6492.85 26.45,-44.1 21.44,-7.58 c 0,0 21.41,-5.04 107.11,-10.08 85.7,-5.04 273.44,-25.19 384.34,-44.1 110.89,-18.9 243.24,-46.64 330.15,-100.82 86.96,-54.18 152.5,-89.45 201.64,-167.62 49.14,-78.12 80.67,-182.69 57.97,-275.97 -22.69,-93.24 -69.29,-211.68 -147.42,-279.73 -78.12,-68.08 -255.82,-137.38 -298.67,-148.71 -42.85,-11.37 -65.55,-21.44 -64.26,-15.12 1.25,6.29 14.18,18.91 23.63,33.05 9.42,14.18 25.82,56.41 33.05,90.43 7.27,34.02 -4.73,70.98 -13.2,97.73 -8.48,26.72 -52.58,29.85 -52.58,29.85 0,0 -66.84,5.35 -109.61,4.88 -42.77,-0.43 -226.6,8.67 -374.02,-49.3 -147.46,-57.96 -268.44,-117.18 -347.82,-166.32 -79.37,-49.14 -173.9,-95.79 -284.8,-93.25 -110.9,2.5 -228.09,12.58 -302.42,23.95 -74.38,11.33 -211.72,26.44 -277.27,34.02 -65.51,7.54 -187.77,18.91 -258.32,40.31 -70.58,21.41 -143.67,42.86 -181.48,70.59 -37.78,27.7 -94.5,78.13 -103.32,93.24 -8.83,15.12 -25.2,42.85 -50.39,54.18 -25.24,11.33 -46.64,16.37 -60.51,13.87 -13.87,-2.54 -44.1,-22.7 -54.18,-31.52 -10.08,-8.79 -36.56,-23.95 -36.56,-23.95 0,0 -8.79,-6.29 -17.62,-26.44 -8.83,-20.16 -12.62,-41.61 -16.41,-81.92 -3.75,-40.31 10.08,-98.28 14.18,-113.4 4.1,-15.11 17.66,-51.68 12.31,-53.86 -5.35,-2.23 -11.37,-4.73 -35.94,0.31 -24.57,5.04 -102.7,19.22 -153.4,34.02 -50.74,14.81 -132.66,56.37 -149.34,66.13 -16.71,9.77 -49.14,28.99 -90.109,27.74 -40.941,-1.25 -73.402,-22.38 -94.492,-56.09 -21.14,-33.72 -28.988,-97.66 -19.847,-139.22 9.097,-41.6 37.457,-106.49 80.937,-148.09 43.481,-41.6 129.181,-99.88 162.891,-114.69 33.71,-14.8 179.57,-32.11 179.57,-32.11 l 370.51,52.93 1000.54,100.78 1025.79,7.58 c 0,0 738.47,-85.7 766.21,-80.66 27.69,5.04 317.54,10.08 375.5,57.97 57.97,47.89 181.49,118.47 173.91,244.49 -7.54,126.02 22.7,607.38 -224.3,826.68 -246.99,219.26 -556.99,468.79 -882.11,446.09 -325.15,-22.69 -436.01,-17.65 -554.49,-65.54 -118.43,-47.89 -93.24,-80.63 -93.24,-80.63 z"
               style="fill:#e3e1e7;fill-opacity:1;fill-rule:nonzero;stroke:none"
               id="path52" />
          </g>
        </g>
      </g>
      <path
         d="m 788.98,1588.71 c -53.628,-21.17 -138.75,-49.88 -147.609,-68.83 -5.043,-9.45 -8.519,-16.29 4.57,-37.81 13.239,-21.72 42.379,-68.83 42.379,-68.83 0,0 212.34,-374.41 507.23,-548.318 C 1490.43,691.02 1865.94,461.641 2675,433.949 3484.02,406.211 4161.99,668.32 4456.88,877.5 c 294.88,209.18 418.35,461.25 438.51,504.06 20.2,42.85 45.39,108.4 45.39,108.4 0,0 9.34,15.78 -5.04,22.66 -15.11,7.26 -108.55,41.75 -108.55,41.75 0,0 -255.98,91.53 -445,109.18 -189.03,17.62 -268.64,13.68 -308.71,15.75 -43.05,2.22 -74.69,60.15 -12,86.01 64.93,26.72 193.75,39.69 367.66,47.23 173.91,7.58 350.35,0 451.13,-10.08 100.82,-10.08 153.75,-5.04 199.11,2.54 45.39,7.54 95.78,22.7 120.97,40.31 25.24,17.66 29.26,18.52 10.82,40.28 -20.15,23.71 -83.59,60.58 -170.51,91.68 -75.11,26.91 -292.34,63.16 -491.44,53.08 -199.1,-10.08 -364.14,-50.04 -418.95,-57.81 -49.49,-7.03 -98.24,34.57 -35.86,79.45 65.08,46.84 347.86,131.92 463.13,155.67 117.26,24.18 330.31,63.59 458.83,86.29 128.55,22.69 180.66,70.82 195.19,84.14 22.03,20.15 52.42,44.8 16.53,54.49 -46.25,12.46 -88.6,22.89 -118.32,25.39 -27.74,2.38 -80.28,3.51 -83.29,17.42 -4.45,20.31 -18.94,135.35 -30.27,201.64 -11.56,67.77 -50,230.78 -78.12,309.96 -21.92,61.84 -73.09,158.83 -80.67,181.53 -7.54,22.65 -10.08,45.35 15.16,80.62 25.19,35.31 123.47,206.68 143.63,269.69 20.16,63.01 50.43,234.41 50.43,292.34 0,57.97 -22.69,390.67 -249.53,428.48 -226.84,37.81 -433.48,-73.09 -516.68,-136.1 -83.16,-63 -181.45,-161.28 -199.1,-173.9 -17.62,-12.62 -30.24,-35.28 -65.51,-22.7 -35.31,12.62 -304.96,118.48 -574.65,146.17 -269.69,27.74 -756.09,65.55 -1119.02,2.54 -362.93,-63 -670.43,-161.29 -735.94,-189.02 -65.55,-27.73 -70.58,-32.77 -95.78,-7.58 -25.2,25.24 -204.14,211.72 -254.57,244.49 -50.39,32.78 -166.33,105.86 -206.68,120.98 -40.309,15.12 -196.559,68.05 -297.379,0 C 630.98,4156.48 562.93,4065.74 545.27,3901.91 c -17.61,-163.82 40.359,-390.62 83.21,-491.44 42.809,-100.82 88.2,-176.45 88.2,-176.45 0,0 17.621,-20.15 0,-52.93 -17.66,-32.77 -65.551,-148.67 -88.2,-226.83 -22.699,-78.13 -52.929,-284.77 -60.511,-340.24 -7.539,-55.43 10.082,-95.78 -30.239,-90.74 -40.308,5.04 -105.851,0 -105.851,0 l -90.75,-2.5 c 0,0 -40.391,0.82 5.043,-35.27 46.019,-36.56 150.547,-111.53 212.027,-140.2 61.449,-28.67 262.352,-97.19 342.461,-119.41 82.86,-23.01 390.67,-95.78 428.44,-103.36 37.81,-7.54 57.03,-18.56 57.03,-18.56 0,0 30.24,-21.13 23.64,-41.91 -7.04,-22.15 -26.45,-30.86 -56.72,-33.4 -30.24,-2.5 -144.26,9.14 -144.26,9.14 0,0 -176.25,16.33 -324.571,14.92 -114.098,-1.05 -210.199,-13.75 -308.668,-43.59 -165.821,-50.23 -241.41,-107.19 -241.41,-107.19 0,0 -29.801,-17.85 5.589,-37.73 39.059,-21.92 89.29,-47.93 156.872,-60.63 67.109,-12.61 187.308,-18.75 267.968,-16.25 80.629,2.54 272.19,27.74 337.73,30.24 65.51,2.54 274.69,25.23 315.04,22.69 40.32,-2.5 80.63,5.04 95.75,-35.27 15.15,-40.31 -32.74,-65.55 -55.43,-65.55 -22.7,0 -126.8,-9.37 -184.61,-18.08 -58.44,-8.83 -230.71,-49.38 -295.038,-69.34 -55.082,-17.07 -134.032,-43.12 -189.032,-63.32 z"
         style="fill:#ffb046;fill-opacity:1;fill-rule:nonzero;stroke:none"
         id="path54" />
      <g
         id="g56">
        <g
           id="g58"
           clip-path="url(#clipPath62)">
          <g
             id="g64"
             clip-path="url(#clipPath68)">
            <path
               d="m 788.98,1588.71 c -53.628,-21.17 -138.75,-49.88 -147.609,-68.83 -5.043,-9.45 -8.519,-16.29 4.57,-37.81 13.239,-21.72 42.379,-68.83 42.379,-68.83 0,0 212.34,-374.41 507.23,-548.318 C 1490.43,691.02 1865.94,461.641 2675,433.949 3484.02,406.211 4161.99,668.32 4456.88,877.5 c 294.88,209.18 418.35,461.25 438.51,504.06 20.2,42.85 45.39,108.4 45.39,108.4 0,0 9.34,15.78 -5.04,22.66 -15.11,7.26 -108.55,41.75 -108.55,41.75 0,0 -255.98,91.53 -445,109.18 -189.03,17.62 -268.64,13.68 -308.71,15.75 -43.05,2.22 -74.69,60.15 -12,86.01 64.93,26.72 193.75,39.69 367.66,47.23 173.91,7.58 350.35,0 451.13,-10.08 100.82,-10.08 153.75,-5.04 199.11,2.54 45.39,7.54 95.78,22.7 120.97,40.31 25.24,17.66 29.26,18.52 10.82,40.28 -20.15,23.71 -83.59,60.58 -170.51,91.68 -75.11,26.91 -292.34,63.16 -491.44,53.08 -199.1,-10.08 -364.14,-50.04 -418.95,-57.81 -49.49,-7.03 -98.24,34.57 -35.86,79.45 65.08,46.84 347.86,131.92 463.13,155.67 117.26,24.18 330.31,63.59 458.83,86.29 128.55,22.69 180.66,70.82 195.19,84.14 22.03,20.15 52.42,44.8 16.53,54.49 -46.25,12.46 -88.6,22.89 -118.32,25.39 -27.74,2.38 -80.28,3.51 -83.29,17.42 -4.45,20.31 -18.94,135.35 -30.27,201.64 -11.56,67.77 -50,230.78 -78.12,309.96 -21.92,61.84 -73.09,158.83 -80.67,181.53 -7.54,22.65 -10.08,45.35 15.16,80.62 25.19,35.31 123.47,206.68 143.63,269.69 20.16,63.01 50.43,234.41 50.43,292.34 0,57.97 -22.69,390.67 -249.53,428.48 -226.84,37.81 -433.48,-73.09 -516.68,-136.1 -83.16,-63 -181.45,-161.28 -199.1,-173.9 -17.62,-12.62 -30.24,-35.28 -65.51,-22.7 -35.31,12.62 -304.96,118.48 -574.65,146.17 -269.69,27.74 -756.09,65.55 -1119.02,2.54 -362.93,-63 -670.43,-161.29 -735.94,-189.02 -65.55,-27.73 -70.58,-32.77 -95.78,-7.58 -25.2,25.24 -204.14,211.72 -254.57,244.49 -50.39,32.78 -166.33,105.86 -206.68,120.98 -40.309,15.12 -196.559,68.05 -297.379,0 C 630.98,4156.48 562.93,4065.74 545.27,3901.91 c -17.61,-163.82 40.359,-390.62 83.21,-491.44 42.809,-100.82 88.2,-176.45 88.2,-176.45 0,0 17.621,-20.15 0,-52.93 -17.66,-32.77 -65.551,-148.67 -88.2,-226.83 -22.699,-78.13 -52.929,-284.77 -60.511,-340.24 -7.539,-55.43 10.082,-95.78 -30.239,-90.74 -40.308,5.04 -105.851,0 -105.851,0 l -90.75,-2.5 c 0,0 -40.391,0.82 5.043,-35.27 46.019,-36.56 150.547,-111.53 212.027,-140.2 61.449,-28.67 262.352,-97.19 342.461,-119.41 82.86,-23.01 390.67,-95.78 428.44,-103.36 37.81,-7.54 57.03,-18.56 57.03,-18.56 0,0 30.24,-21.13 23.64,-41.91 -7.04,-22.15 -26.45,-30.86 -56.72,-33.4 -30.24,-2.5 -144.26,9.14 -144.26,9.14 0,0 -176.25,16.33 -324.571,14.92 -114.098,-1.05 -210.199,-13.75 -308.668,-43.59 -165.821,-50.23 -241.41,-107.19 -241.41,-107.19 0,0 -29.801,-17.85 5.589,-37.73 39.059,-21.92 89.29,-47.93 156.872,-60.63 67.109,-12.61 187.308,-18.75 267.968,-16.25 80.629,2.54 272.19,27.74 337.73,30.24 65.51,2.54 274.69,25.23 315.04,22.69 40.32,-2.5 80.63,5.04 95.75,-35.27 15.15,-40.31 -32.74,-65.55 -55.43,-65.55 -22.7,0 -126.8,-9.37 -184.61,-18.08 -58.44,-8.83 -230.71,-49.38 -295.038,-69.34 -55.082,-17.07 -134.032,-43.12 -189.032,-63.32 z"
               style="fill:#ffb046;fill-opacity:1;fill-rule:nonzero;stroke:none"
               id="path70" />
            <path
               d="m 4778.87,2521.64 c 0,0 4.92,-51.37 1.36,-144.06 -3.55,-92.66 -26.71,-326.13 -48.12,-452.66 -21.37,-126.52 -23.2,-136.33 -33.28,-185.47 -10.08,-49.14 -16.41,-104.57 -16.41,-104.57 0,0 -22.65,-99.57 -75.58,-182.73 -52.93,-83.17 -138.64,-205.39 -202.89,-263.36 -64.26,-57.97 -210.47,-157.54 -366.72,-224.341 -156.25,-66.789 -294.22,-108.828 -414.5,-136.437 -120.31,-27.621 -376.95,-77.543 -758.32,-84.653 -381.36,-7.148 -678.98,46.332 -958.78,108.711 -279.81,62.379 -463.36,142.582 -604.15,222.77 -140.82,80.2 -259.06,226.1 -300.62,319.34 -41.598,93.24 -72.462,285.43 -75.63,338.98 -3.16,53.56 -1.25,283.56 8.211,366.72 9.45,83.17 9.45,97.66 -3.171,107.74 -12.61,10.08 -90.739,54.18 -121.598,79.37 -30.902,25.24 -89.492,81.29 -117.852,130.43 -28.32,49.18 -51.64,178.32 -58.59,228.75 -6.921,50.39 -27.07,209.81 -27.699,246.37 -0.621,36.52 -10.742,45.98 -10.742,45.98 l -35.269,9.45 -140.508,-274.1 -170.742,-74.34 24.101,-170.27 188.899,-253.05 -313.629,-263.75 138.988,-192.5 203.16,-163.94 c 0,0 71.289,-320.79 352.891,-563.168 281.56,-242.383 926.72,-716.403 1999.57,-677.231 1072.85,39.219 1404.34,185.359 1732.27,488.328 327.89,302.961 459.76,509.681 520.39,645.151 60.58,135.43 89.1,217.42 89.1,217.42 l 196.01,128.28 -39.18,217.43 -142.57,114.06 213.86,270.9 -42.77,171.09 -245.94,53.48 -331.48,-64.18 z"
               style="fill:#de9035;fill-opacity:1;fill-rule:nonzero;stroke:none"
               id="path72" />
            <path
               d="m 932.148,3438.16 c 0,0 -136.097,-144.92 -171.367,-196.56 -35.269,-51.68 -64.261,-91.99 -64.261,-91.99 0,0 -156.29,250.78 -156.29,257.07 0,6.29 -64.25,341.48 -64.25,341.48 l 32.77,-6.29 c 0,0 50.391,-64.25 83.16,-84.41 32.781,-20.16 103.32,-40.35 144.93,-28.98 41.601,11.32 76.871,22.65 107.109,49.14 30.231,26.44 47.891,47.89 47.891,47.89 l 7.57,-190.31 25.199,-66.76 z"
               style="fill:#de9035;fill-opacity:1;fill-rule:nonzero;stroke:none"
               id="path74" />
            <path
               d="m 1295.23,3706.17 c 0,0 -79.29,-44.53 -180,-128.32 -100.7,-83.75 -123.859,-107.81 -141.679,-129.18 -17.813,-21.4 -31.211,-23.16 -46.321,-20.51 -15.16,2.7 -32.968,14.26 -38.32,40.98 -5.359,26.76 -28.519,128.32 -25.859,195.16 2.687,66.83 6.25,140.78 32.969,169.29 26.75,28.52 47.218,37.43 84.64,37.43 37.43,0 105.16,1.79 178.25,-22.27 73.04,-24.06 109.61,-40.98 127.42,-53.48 17.81,-12.46 32.97,-24.02 32.07,-44.53 -0.9,-20.51 -11.6,-35.66 -23.17,-44.57 z"
               style="fill:#000000;fill-opacity:1;fill-rule:nonzero;stroke:none"
               id="path76" />
            <path
               d="m 1137.5,3695.51 c 0,0 -53.48,-40.12 -96.21,-77.97 -40.47,-35.86 -70.47,-68.24 -81.56,-81.09 -7.582,-8.83 -13.789,-18.72 -15.589,-0.47 -1.719,17.73 -6.25,83.32 -4.879,130.54 0.82,29.53 8.008,83.32 13.789,101.14 5.781,17.85 6.25,23.16 32.07,24.96 25.859,1.79 67.729,-0.9 96.249,-5.35 43.2,-7.11 88.2,-25.82 103.36,-33.87 15.15,-8.01 24.06,-11.56 8.04,-21.37 -16.05,-9.8 -55.27,-36.52 -55.27,-36.52 z"
               style="fill:#ffa2ba;fill-opacity:1;fill-rule:nonzero;stroke:none"
               id="path78" />
            <path
               d="m 4612.5,4271.8 c 0,0 37.19,-20.16 49.77,-32.15 12.61,-11.95 71.83,-61.13 99.57,-138.63 27.73,-77.5 63.63,-167.58 57.96,-299.26 -5.66,-131.72 -28.98,-242.62 -56.09,-298.05 -27.07,-55.47 -25.19,-42.85 -25.19,-42.85 0,0 0.62,1.25 -10.71,21.44 -11.36,20.16 -40.97,61.1 -58.59,75.59 -17.66,14.49 -26.49,-10.08 -26.49,-10.08 l -37.14,-44.1 -206.68,143.67 c 0,0 105.31,-141.25 145.23,-207.65 48.32,-80.43 126.88,-269.69 154.06,-363.21 28.52,-98.16 71.84,-291.75 76.88,-361.68 5.04,-69.96 6.91,-56.72 6.91,-56.72 l 265.9,115.32 -137.34,422.77 c 0,0 194.06,307.5 199.1,511.64 5.04,204.14 7.54,400.74 -126.02,504.06 -133.59,103.36 -211.72,108.4 -330.19,98.32 -118.44,-10.07 -40.94,-38.43 -40.94,-38.43 z"
               style="fill:#de9035;fill-opacity:1;fill-rule:nonzero;stroke:none"
               id="path80" />
            <path
               d="m 4271.45,3757.85 c 0,0 94.45,-79.3 151.44,-137.23 57.03,-57.89 128.32,-137.22 139.02,-154.14 10.71,-16.91 19.61,-24.06 37.43,-24.06 17.81,0 33.86,10.7 44.57,25.86 10.66,15.12 44.53,91.76 58.79,149.69 14.25,57.93 19.6,129.22 16.95,147.93 -2.7,18.71 -4.45,40.08 -23.17,60.58 -18.71,20.51 -54.37,42.78 -78.43,49.89 -24.07,7.15 -80.2,18.71 -139.89,15.15 -59.72,-3.55 -160.39,-25.82 -182.69,-37.42 -22.27,-11.6 -42.77,-24.06 -45.43,-45.43 -2.66,-21.4 7.15,-37.42 21.41,-50.82 z"
               style="fill:#000000;fill-opacity:1;fill-rule:nonzero;stroke:none"
               id="path82" />
            <path
               d="m 4376.56,3773.01 c 0,0 47.23,-35.63 107.82,-96.21 60.62,-60.63 93.59,-106.96 100.7,-118.52 7.15,-11.6 9.45,-21.8 16.72,-4.8 7.22,17.03 21.4,67.42 27.73,117.85 6.29,50.39 12.58,83.16 -2.54,102.07 -15.11,18.9 -59.22,37.77 -104.61,39.06 -45.35,1.25 -134.8,-10.08 -149.96,-15.12 -15.12,-5.04 -15.23,-8.51 4.14,-24.33 z"
               style="fill:#ffa2ba;fill-opacity:1;fill-rule:nonzero;stroke:none"
               id="path84" />
            <path
               d="m 5041.6,2000.31 c 0,0 -7.58,-89.45 -11.37,-115.94 -3.75,-26.44 -18.9,-118.43 -20.15,-124.72 -1.25,-6.33 141.13,25.19 141.13,25.19 l 132.34,68.05 c 0,0 -8.82,44.1 -16.4,47.89 -7.54,3.75 -187.77,99.53 -187.77,99.53 z"
               style="fill:#d96728;fill-opacity:1;fill-rule:nonzero;stroke:none"
               id="path86" />
            <path
               d="m 5027.73,2481.72 c 0,0 8.83,-59.26 11.33,-97.03 2.54,-37.82 2.54,-93.28 2.54,-109.65 0,-16.37 93.24,1.25 93.24,1.25 l 142.39,90.74 16.4,60.51 -20.15,27.69 z"
               style="fill:#de7b2b;fill-opacity:1;fill-rule:nonzero;stroke:none"
               id="path88" />
            <path
               d="m 551.602,2031.84 c 0,0 0,-78.13 1.25,-132.35 1.25,-54.18 7.578,-139.84 7.578,-149.96 0,-10.08 -160.078,34.02 -160.078,34.02 0,0 -83.161,40.36 -89.454,47.9 -6.289,7.57 -70.589,55.46 -66.796,60.5 3.789,5.04 90.738,52.93 102.07,63.01 11.367,10.08 205.43,76.88 205.43,76.88 z"
               style="fill:#db6421;fill-opacity:1;fill-rule:nonzero;stroke:none"
               id="path90" />
            <path
               d="m 1491.68,3889.34 c 0,0 15.12,-30.28 31.52,-42.86 16.37,-12.61 35.28,-23.94 119.69,-22.69 84.45,1.25 163.83,22.69 253.32,45.35 89.45,22.7 268.4,60.51 346.52,69.34 78.13,8.82 434.77,23.94 579.69,18.9 144.92,-5.04 409.57,-30.27 536.84,-41.6 127.26,-11.33 401.99,-49.14 470.04,-54.18 68.04,-5.04 126.01,-11.33 160.04,-1.25 34.02,10.08 41.6,22.66 56.71,44.1 15.12,21.41 34.03,55.43 34.03,55.43 l -310,78.13 -466.25,73.08 -470.08,15.16 -554.45,-34.02 -331.45,-61.76 -393.16,-127.31 z"
               style="fill:#de9035;fill-opacity:1;fill-rule:nonzero;stroke:none"
               id="path92" />
            <path
               d="m 1845.04,3975.27 c 0,0 -8.05,-39.18 -8.95,-109.57 -0.86,-70.43 13.4,-204.96 48.13,-298.51 34.76,-93.6 110.51,-234.38 188.91,-295.86 78.43,-61.49 126.56,-91.76 154.17,-73.95 27.62,17.82 25.83,36.53 21.37,73.05 -4.45,36.56 -23.16,187.15 -26.72,271.8 -3.55,84.64 -8.9,245.04 -5.35,302.97 3.56,57.92 15.16,168.39 19.61,194.25 4.45,25.82 -0.9,17.82 4.45,19.61 5.36,1.76 228.13,24.06 228.13,24.06 0,0 -9.81,-79.33 -8.91,-171.99 0.86,-92.65 31.17,-315.43 65.04,-411.68 33.87,-96.25 114.06,-219.22 155.94,-231.68 41.87,-12.46 66.84,-5.35 73.94,55.24 7.15,60.62 16.96,197.81 22.31,253.98 5.31,56.13 30.27,189.77 48.09,259.3 17.85,69.49 73.98,208.51 92.69,237.89 18.71,29.41 17.81,24.06 17.81,24.06 l 285.16,-9.8 c 0,0 -49.02,-48.09 -82.89,-117.62 -33.87,-69.49 -57.03,-187.11 -60.59,-253.95 -3.55,-66.83 -8,-180.89 18.71,-293.16 26.72,-112.26 66.84,-251.29 103.36,-257.54 36.53,-6.21 50.78,5.35 54.38,35.67 3.55,30.31 6.21,124.76 13.36,169.29 7.11,44.57 30.27,180.9 76.64,289.61 46.33,108.71 106.01,200.51 158.59,261.1 52.58,60.58 94.46,98.9 113.17,112.26 18.71,13.36 12.5,25.82 12.5,25.82 0,0 -237.93,52.58 -456.25,61.49 -218.32,8.94 -528.4,17.85 -714.65,-3.56 -186.21,-21.37 -524.77,-95.62 -575.63,-110.47 -30.86,-9.02 -36.52,-32.11 -36.52,-32.11 z"
               style="fill:#6b2916;fill-opacity:1;fill-rule:nonzero;stroke:none"
               id="path94" />
          </g>
        </g>
      </g>
      <g
         id="g96">
        <g
           id="g98"
           clip-path="url(#clipPath102)">
          <g
             id="g104"
             clip-path="url(#clipPath108)">
            <g
               id="g110"
               clip-path="url(#clipPath114)">
              <g
                 id="g116"
                 clip-path="url(#clipPath120)">
                <g
                   id="g122"
                   clip-path="url(#clipPath126)">
                  <path
                     d="m 1491.68,3889.34 c 0,0 15.12,-30.28 31.52,-42.86 16.37,-12.61 35.28,-23.94 119.69,-22.69 84.45,1.25 163.83,22.69 253.32,45.35 89.45,22.7 268.4,60.51 346.52,69.34 78.13,8.82 434.77,23.94 579.69,18.9 144.92,-5.04 409.57,-30.27 536.84,-41.6 127.26,-11.33 401.99,-49.14 470.04,-54.18 68.04,-5.04 126.01,-11.33 160.04,-1.25 34.02,10.08 41.6,22.66 56.71,44.1 15.12,21.41 34.03,55.43 34.03,55.43 l -310,78.13 -466.25,73.08 -470.08,15.16 -554.45,-34.02 -331.45,-61.76 -393.16,-127.31 z"
                     style="fill:#3d1913;fill-opacity:1;fill-rule:nonzero;stroke:none"
                     id="path128" />
                </g>
              </g>
            </g>
          </g>
        </g>
      </g>
      <g
         id="g130">
        <g
           id="g132"
           clip-path="url(#clipPath136)">
          <g
             id="g138"
             clip-path="url(#clipPath142)">
            <path
               d="m 4936.37,1437.03 c -8.21,-5.66 -80.04,-55.47 -145.55,-89.49 -65.55,-34.02 -173.28,-80 -251.41,-98.91 -78.12,-18.9 -105.86,-17.03 -116.56,-32.77 -10.7,-15.74 -5.66,-36.52 10.08,-44.73 15.74,-8.2 107.11,-38.43 143.67,-44.1 36.53,-5.66 140.51,-19.53 166.33,-15.78 25.82,3.79 19.53,-0.63 19.53,-0.63 l 185.24,318.83 z"
               style="fill:#391610;fill-opacity:1;fill-rule:nonzero;stroke:none"
               id="path144" />
            <path
               d="m 4955.9,2966.87 c 0,0 5.66,-23.94 -8.83,-42.22 -14.49,-18.24 -221.8,-213.6 -250.16,-241.33 -28.32,-27.7 -150.58,-132.3 -160.66,-150.59 -10.08,-18.24 -5.66,-36.52 12.62,-39.68 18.28,-3.17 212.97,-0.63 246.99,1.25 34.02,1.91 233.75,4.41 250.16,7.57 16.36,3.17 20.78,21.41 20.78,21.41 l -100.82,442.34 z"
               style="fill:#6b2916;fill-opacity:1;fill-rule:nonzero;stroke:none"
               id="path146" />
          </g>
        </g>
      </g>
      <g
         id="g148">
        <g
           id="g150"
           clip-path="url(#clipPath154)">
          <g
             id="g156"
             clip-path="url(#clipPath160)">
            <g
               id="g162"
               clip-path="url(#clipPath166)">
              <g
                 id="g168"
                 clip-path="url(#clipPath172)">
                <g
                   id="g174"
                   clip-path="url(#clipPath178)">
                  <path
                     d="m 4760.63,2817.77 c 8.9,-48.12 16.91,-132.77 18.71,-173.75 1.79,-40.97 1.79,-155.93 0.89,-206.72 -0.89,-50.82 0,-78.43 0,-78.43 l 347.5,49.02 c 0,0 -57.89,311.88 -57.03,322.58 0.9,10.66 -98,294.02 -98,294.02 l -220.08,-171.95 z"
                     style="fill:#3d1913;fill-opacity:1;fill-rule:nonzero;stroke:none"
                     id="path180" />
                </g>
              </g>
            </g>
          </g>
        </g>
      </g>
      <g
         id="g182">
        <g
           id="g184"
           clip-path="url(#clipPath188)">
          <g
             id="g190"
             clip-path="url(#clipPath194)">
            <path
               d="m 838.129,1125.62 c 19.57,5.36 89.961,32.08 123.82,50.79 33.871,18.71 71.291,42.77 87.351,60.58 16.01,17.85 35.62,37.46 24.06,50.82 -11.6,13.36 -43.67,24.06 -68.63,28.52 -24.929,4.45 -106.921,24.06 -155.941,40.97 -48.988,16.92 -130.078,53.48 -155.937,68.6 -25.821,15.15 -62.383,37.46 -62.383,37.46 l -18.707,-4.49 139.918,-255.71 z"
               style="fill:#391610;fill-opacity:1;fill-rule:nonzero;stroke:none"
               id="path196" />
            <path
               d="m 608.199,2955 c 0,0 2.699,-23.16 10.711,-38.32 8,-15.16 63.238,-97.11 110.5,-145.23 47.231,-48.13 126.531,-126.53 170.199,-159.5 43.629,-32.97 69.493,-56.13 56.993,-67.73 -12.461,-11.6 -26.723,-19.61 -67.692,-20.51 -41.019,-0.86 -128.32,0 -192.5,6.25 -64.14,6.25 -90.859,8.91 -137.23,17.81 -46.328,8.91 -45.43,10.71 -45.43,10.71 l 24.961,234.33 45.43,170.2 z"
               style="fill:#6b2916;fill-opacity:1;fill-rule:nonzero;stroke:none"
               id="path198" />
          </g>
        </g>
      </g>
      <g
         id="g200">
        <g
           id="g202"
           clip-path="url(#clipPath206)">
          <g
             id="g208"
             clip-path="url(#clipPath212)">
            <g
               id="g214"
               clip-path="url(#clipPath218)">
              <g
                 id="g220"
                 clip-path="url(#clipPath224)">
                <g
                   id="g226"
                   clip-path="url(#clipPath230)">
                  <path
                     d="m 4776.68,2521.95 c 0,0 7.11,-51.68 3.55,-144.37 -3.55,-92.66 -26.71,-326.13 -48.12,-452.66 -21.37,-126.52 -23.2,-136.33 -33.28,-185.47 -10.08,-49.14 -16.41,-104.57 -16.41,-104.57 0,0 -22.65,-99.57 -75.58,-182.73 -52.93,-83.17 -138.64,-205.39 -202.89,-263.36 -64.26,-57.97 -210.47,-157.54 -366.72,-224.341 -156.25,-66.789 -294.22,-108.828 -414.5,-136.437 -120.31,-27.621 -376.95,-77.543 -758.32,-84.653 -381.36,-7.148 -678.98,46.332 -958.78,108.711 -279.81,62.379 -463.36,142.582 -604.15,222.77 -140.82,80.2 -259.06,226.1 -300.62,319.34 -41.598,93.24 -72.462,285.43 -75.63,338.98 -3.16,53.56 -1.25,283.56 8.211,366.72 9.45,83.17 9.45,97.66 -3.171,107.74 -12.61,10.08 -90.739,54.18 -121.598,79.37 -30.902,25.24 -89.492,81.29 -117.813,130.43 -28.359,49.18 -51.679,178.32 -58.629,228.75 -6.921,50.39 -27.07,209.81 -27.699,246.37 -0.621,36.52 -10.742,45.98 -10.742,45.98 l -35.269,9.45 -140.508,-274.1 -170.742,-74.34 24.101,-170.27 188.899,-253.05 -313.629,-263.75 138.988,-192.5 203.16,-163.94 c 0,0 71.289,-320.79 352.891,-563.168 281.56,-242.383 926.72,-716.403 1999.57,-677.231 1072.85,39.219 1404.34,185.359 1732.27,488.328 327.89,302.961 459.76,509.681 520.39,645.151 60.58,135.43 89.1,217.42 89.1,217.42 l 196.01,128.28 -39.18,217.43 -142.57,114.06 213.86,270.9 -42.77,171.09 -245.94,53.48 -331.48,-64.18 z"
                     style="fill:#3d1913;fill-opacity:1;fill-rule:nonzero;stroke:none"
                     id="path232" />
                </g>
              </g>
            </g>
          </g>
        </g>
      </g>
      <g
         id="g234">
        <g
           id="g236"
           clip-path="url(#clipPath240)">
          <g
             id="g242"
             clip-path="url(#clipPath246)">
            <path
               d="m 2736.99,2135.2 c -68.63,0 -257.54,-5.32 -272.65,-11.57 -15.16,-6.25 -16.96,-30.31 -35.67,-32.97 -18.71,-2.69 -157.69,-0.89 -300.27,-19.61 -142.58,-18.71 -301.21,-21.36 -461.6,-94.45 -160.39,-73.08 -203.17,-106.91 -279.81,-226.33 -76.6,-119.41 -111.09,-265.86 -83.75,-399.22 26.84,-130.93 186.33,-332.34 344.22,-419.21 158.91,-87.469 460,-170.508 849.84,-190.281 386.72,-19.61 600.47,-6.168 944.54,44.57 278,40.98 397.03,99.609 570.27,199.609 164.22,94.772 272.69,238.792 278.05,393.832 5.31,155.04 16.01,320.78 -162.19,440.2 -178.2,119.41 -354.65,196.05 -620.2,231.68 -265.54,35.66 -437.5,31.21 -458,32.96 -20.51,1.8 -33.87,10.71 -40.98,21.41 -7.15,10.66 -207.66,28.52 -271.8,29.38 z"
               style="fill:#fae0ba;fill-opacity:1;fill-rule:nonzero;stroke:none"
               id="path248" />
            <path
               d="m 2687.58,1764.69 c -2.5,-23.95 -3.79,-59.26 -31.49,-95.78 -27.73,-36.57 -54.21,-65.55 -107.11,-80.67 -52.93,-15.12 -122.26,-10.08 -171.4,15.12 -49.14,25.19 -105.86,86.95 -124.77,123.51 -18.9,36.53 -26.44,81.92 -40.31,98.29 -13.87,16.36 -42.23,21.09 -54.49,9.45 -12.31,-11.64 -23.63,-32.15 -11.06,-68.67 12.62,-36.57 87.93,-154.07 122.58,-181.17 34.65,-27.07 106.17,-66.76 127.89,-72.15 21.76,-5.35 20.47,-3.44 25.86,-5.67 5.35,-2.18 7.54,-5.97 7.54,-12.58 0,-6.64 -3.16,-46.64 -2.19,-64.29 0.94,-17.62 7.23,-113.71 14.18,-137.97 6.92,-24.26 18.83,-109.45 67.85,-170.94 48.99,-61.48 148.79,-138.119 237.04,-153.279 88.2,-15.121 185.35,-17.809 257.5,19.609 72.18,37.42 130.11,83.75 166.64,138.12 36.52,54.34 73.94,186.25 74.84,260.2 0.9,73.95 -13.28,159.1 -16.13,171.88 -2.82,12.73 -10.39,32.26 -10.86,37.65 -0.47,5.35 1.56,7.85 5.82,13.2 4.26,5.36 34.53,33.91 50.58,58.83 16.06,24.96 50.79,83.79 59.69,111.41 8.91,27.62 10.7,55.7 -11.33,67.26 -22.07,11.61 -44.14,-6.01 -54.37,-35.43 -10.24,-29.37 -63.95,-107.14 -83.75,-132.77 -19.85,-25.58 -57.7,-73.24 -150.94,-90.86 -93.24,-17.65 -162.58,16.37 -205.39,68.05 -42.85,51.68 -40.35,74.33 -44.14,103.32 -3.75,28.98 -8.79,152.5 -8.79,167.62 0,15.11 -4.26,29.92 2.03,32.3 6.29,2.34 55.94,16.21 67.89,21.72 11.99,5.51 100.28,44.73 145.74,99.96 45.43,55.24 56.14,90 54.34,129.22 -1.76,39.22 -29.37,98.01 -92.66,123.87 -63.28,25.82 -167.53,36.52 -233.47,35.62 -65.94,-0.9 -177.31,-16.91 -224.53,-42.77 -47.23,-25.82 -73.99,-56.13 -82.89,-95.35 -8.91,-39.18 0.89,-78.4 17.85,-106.92 16.91,-28.51 66.79,-88.2 109.57,-111.4 42.77,-23.17 86.44,-44.53 112.3,-48.99 25.82,-4.45 35.98,-4.57 38.52,-8.36 2.54,-3.79 1.72,-20.54 1.48,-28.43 z"
               style="fill:#000000;fill-opacity:1;fill-rule:nonzero;stroke:none"
               id="path250" />
            <path
               d="m 2808.28,2281.37 c -61.48,4.45 -118.51,8 -172.89,-0.9 -54.34,-8.91 -104.22,-32.07 -121.17,-43.67 -16.92,-11.6 -26.72,-24.07 -24.96,-40.98 1.79,-16.95 14.26,-41.87 36.56,-61.48 22.27,-19.61 57.23,-53.01 110.47,-75.75 44.8,-19.14 60.82,-23.82 83.79,-26.75 20.58,-2.58 43.44,-2.5 63.24,3.59 18.87,5.78 71.29,27.62 104.26,56.13 32.97,28.52 64.18,55.24 73.08,79.3 8.91,24.06 5.36,50.78 -6.25,61.48 -41.56,33.25 -94.02,43.68 -146.13,49.03 z"
               style="fill:#ffa2ba;fill-opacity:1;fill-rule:nonzero;stroke:none"
               id="path252" />
            <path
               d="m 2577.97,1159.8 c 21.72,-22.69 63.94,-62.69 119.06,-90.74 48.32,-24.57 107.42,-35.47 163.83,-33.4 68.36,2.5 118.12,22.04 163.83,54.81 44.45,31.91 73.2,63.01 86.33,82.23 12.69,18.63 18.9,32.46 17.61,41.28 -1.25,8.83 -6.29,21.41 -26.44,41.57 -20.16,20.15 -70.74,68.12 -110.9,87.57 -41.06,19.93 -83.99,34.18 -149.34,30.9 -65.31,-3.28 -96.52,-17.73 -141.83,-45.11 -48.95,-29.57 -90.16,-66.14 -117.58,-94.38 -22.34,-23.01 -25.39,-28.75 -23.48,-38.2 1.88,-9.46 9.46,-25.82 18.91,-36.53 z"
               style="fill:#ffa2ba;fill-opacity:1;fill-rule:nonzero;stroke:none"
               id="path254" />
            <path
               d="m 2500.2,1477.81 c -0.75,-14.49 -2.9,-48.98 0.23,-84.26 3.16,-35.27 11.99,-84.45 13.87,-95.15 1.91,-10.7 4.41,-15.74 10.08,-13.24 5.7,2.54 16.32,17.69 26.17,28.04 18.28,19.22 46.6,47.58 91.36,76.25 42.04,26.96 91.8,48.01 158.13,57.97 62.5,9.38 114.57,2.42 158.48,-8.51 44.8,-11.14 81.91,-28.36 117.18,-55.43 35.32,-27.11 60.51,-51.06 68.71,-59.89 8.17,-8.79 14.5,-10.7 17,-8.16 2.54,2.5 4.41,33.4 4.41,51.64 0,18.28 0,95.16 -1.87,118.48 -1.92,23.32 -5.08,40.11 -6.49,49.02 -1.8,10.98 -3.08,15.59 -13.51,9.02 -8.25,-5.23 -15.04,-9.06 -27.9,-15.82 -10.23,-5.43 -42.81,-17.54 -69.64,-22.3 -31.84,-5.59 -53.68,-7.93 -108.68,1.25 -52.93,8.79 -90.66,28.01 -130.03,58.36 -37.04,28.59 -42,38.9 -49.54,52.77 -7.57,13.87 -11.99,22.07 -14.49,27.11 -2.54,5.04 -8.55,7.77 -13.87,-2.54 -5.74,-11.13 -18.51,-35.43 -33.16,-52.34 -14.26,-16.49 -40.08,-37.81 -74.1,-54.85 -34.02,-16.99 -60.35,-26.91 -88.05,-30.78 -27.54,-3.86 -30.31,-3.83 -31.91,-6.72 -1.68,-2.93 -1.6,-5.62 -2.38,-19.92 z"
               style="fill:#ffa2ba;fill-opacity:1;fill-rule:nonzero;stroke:none"
               id="path256" />
            <path
               d="m 1983.79,2209.49 c -33.4,-0.62 -157.54,-5.66 -220.55,-18.24 -63.01,-12.62 -189.02,-44.1 -227.46,-63.63 -38.44,-19.53 -57.97,-24.61 -69.92,-16.41 -11.99,8.2 -20.82,22.07 -17.66,50.43 3.17,28.32 30.86,116.56 79.38,164.45 48.51,47.86 107.89,89.34 178.32,106.49 72.69,17.65 115.08,15.47 181.48,-1.29 63.64,-16.02 102.7,-40.31 147.42,-76.88 42.15,-34.41 76.88,-77.5 76.88,-98.9 0,-21.41 4.41,-42.23 -28.36,-44.73 -32.73,-2.54 -99.53,-1.29 -99.53,-1.29 z"
               style="fill:#000000;fill-opacity:1;fill-rule:nonzero;stroke:none"
               id="path258" />
            <path
               d="m 1530.04,2795.94 c 27.15,22.73 58.59,49.8 107.34,78.86 44.07,26.25 115.43,58.36 159.96,74.85 44.57,16.48 108.29,27.19 127,37.89 18.71,10.66 29.41,30.27 25.82,49.45 -3.56,19.14 -14.26,33.87 -37.86,35.2 -23.63,1.33 -73.08,1.33 -132.34,-12.03 -59.26,-13.36 -126.52,-45.32 -178.83,-78.91 -53.75,-34.57 -106.29,-75.7 -131.25,-114.92 -24.96,-39.18 -17.81,-64.57 -8,-74.85 9.8,-10.23 45,-14.25 68.16,4.46 z"
               style="fill:#000000;fill-opacity:1;fill-rule:nonzero;stroke:none"
               id="path260" />
            <path
               d="m 3412.19,2209.49 c 56.72,0.67 165.7,7.58 262.11,-12.58 96.4,-20.15 152.5,-32.77 201.01,-52.3 48.52,-19.53 91.99,-32.77 105.2,-32.77 13.24,0 37.19,3.16 35.94,30.27 -1.25,27.07 -14.5,69.92 -34.65,104.57 -20.2,34.65 -75,117.19 -140.51,154.37 -65.55,37.19 -112.19,39.69 -161.95,40.32 -49.77,0.66 -132.31,-12.58 -191.53,-48.52 -59.26,-35.9 -107.15,-71.17 -124.76,-97.03 -17.66,-25.82 -27.11,-51.02 -17.03,-67.42 10.07,-16.37 34.64,-19.53 66.17,-18.91 z"
               style="fill:#000000;fill-opacity:1;fill-rule:nonzero;stroke:none"
               id="path262" />
            <path
               d="m 3794.65,2887.81 c 62.38,-24.49 102.15,-50.39 133.94,-73.2 40.12,-28.79 64.38,-53.4 80.43,-60.55 16.02,-7.11 40.98,-13.79 54.77,0.47 13.83,14.26 22.93,47.74 9.8,72.62 -21.83,41.4 -78.39,90 -147.46,130.97 -66.13,39.26 -124.76,60.59 -183.12,70.83 -54.85,9.64 -96.68,14.33 -128.75,7.57 -18.52,-3.86 -46.8,-17.34 -45.43,-49.45 1.17,-28.63 12.19,-36.17 47.22,-45.43 43.09,-11.41 118.01,-29.18 178.6,-53.83 z"
               style="fill:#000000;fill-opacity:1;fill-rule:nonzero;stroke:none"
               id="path264" />
          </g>
        </g>
      </g>
    </g>
  </g>
</svg>
